<svg xmlns="http://www.w3.org/2000/svg" width="426" height="84" viewBox="0 0 426 84">
  <g fill="#FFF" fill-rule="evenodd" transform="translate(0 -3)">
    <path d="M66.842283,75.155512 C56.5044757,78.0294573 45.2726101,79.8775869 34.9431196,79.5245734 C9.01543297,78.7479437 3.28098552,70.2880786 3.28098552,70.3129972 C17.5942329,68.439949 28.3312476,57.6460417 28.3312476,57.6252762 C8.99879933,45.0621482 0.00415841004,32.4034989 0,32.3827334 C16.6128481,40.1324183 47.7260721,29.0934781 58.7666507,24.695345 C107.220445,5.67414627 106.338862,23.7775099 106.338862,23.8564188 C106.338862,23.8564188 106.338862,24.3714032 106.330545,25.2601666 C106.093515,27.5526779 104.708765,31.4026018 98.9784758,32.6651442 C90.8778931,34.438518 86.5323546,24.2177385 78.3236532,24.3132598 C70.7345548,24.3963218 70.0109915,28.923201 70.1024765,31.0994255 C70.1024765,30.912536 70.1024765,30.7256465 70.1024765,30.538757 C70.4850502,36.3530972 75.8701912,36.9511436 77.0553381,36.9428374 C143.373661,36.30326 209.708618,36.1288298 276.035259,36.427853 C300.341165,36.5358336 324.642914,36.7061107 348.944662,36.9428374 C350.129809,36.9511436 355.51495,36.3530972 355.901682,30.538757 C355.901682,30.7256465 355.901682,30.9166891 355.901682,31.1077317 C355.993167,28.9315072 355.273762,24.3963218 347.676347,24.3132598 C339.467645,24.2177385 335.122107,34.438518 327.021524,32.6651442 C321.295394,31.4026018 319.906485,27.556831 319.669455,25.2601666 C319.661138,24.3755563 319.661138,23.8564188 319.661138,23.8564188 C319.665297,23.7775099 318.779555,5.67414627 367.237508,24.695345 C378.273928,29.0934781 409.39131,40.1324183 426,32.3827334 C426,32.4034989 417.001201,45.0621482 397.668752,57.6252762 C397.668752,57.6460417 408.405767,68.439949 422.719014,70.3129972 C422.719014,70.2880786 416.988725,78.7479437 391.05688,79.5245734 C380.498677,79.8858931 368.992357,77.9422422 358.463262,74.9561632 L355.901682,59.3737314 C355.901682,62.5259344 355.901682,65.6822905 355.901682,68.8344936 C355.901682,77.8591802 350.146442,85.3347605 343.052195,85.5133438 C321.428463,86.0075627 299.80473,86.3813418 278.180998,86.6263747 C212.906436,87.3739327 147.631873,87.0001537 82.3656277,85.5008845 C75.5915778,85.3306074 70.1024765,78.1955813 70.1024765,69.5778985 C70.1024765,63.6804963 70.1024765,57.7872471 70.1024765,51.8898449 L66.842283,75.155512 Z M113.694,58.622 C109.094,65.016 102.102,69.57 95.248,71.41 L95.248,46.478 L89.544,46.478 L89.544,72.56 L88.946,72.652 L90.74,79 C101.734,77.022 111.532,71.548 117.466,63.268 L113.694,58.622 Z M151.29,56.782 C142.918,66.12 131.786,72.514 120.562,74.446 C121.62,76.194 122.586,77.988 123.69,79.782 C135.006,77.39 146.138,70.996 154.142,61.75 C153.222,60.094 152.164,58.392 151.29,56.782 Z M137.214,49.974 C134.132,47.812 130.728,45.972 126.864,44.592 L123.368,48.87 C127.14,50.296 130.774,52.182 133.764,54.344 L137.214,49.974 Z M132.522,59.68 C129.762,57.518 126.496,55.632 122.586,54.16 L119.274,58.392 C123.506,60.232 126.45,61.934 129.164,64.188 L132.522,59.68 Z M151.704,51.952 C150.738,49.928 149.956,48.962 148.53,47.076 L144.896,48.824 C146,50.388 146.552,51.538 147.656,53.884 C149.036,53.194 150.324,52.596 151.704,51.952 Z M156.81,50.388 C155.706,48.318 154.97,47.214 153.682,45.42 C152.44,45.972 151.198,46.524 149.91,47.03 C151.566,49.238 152.394,50.342 153.13,51.998 C154.372,51.492 155.568,50.94 156.81,50.388 Z M185.114,55.54 C178.398,64.602 167.864,71.18 156.41,73.802 C157.33,75.504 158.158,77.436 159.078,79.184 C170.486,76.562 181.112,69.8 188.426,60.6 C187.322,58.898 186.218,57.288 185.114,55.54 Z M170.44,53.93 C167.45,51.078 164.552,48.686 160.734,46.294 C159.446,47.766 158.25,49.284 156.916,50.71 C160.32,53.102 163.54,55.356 166.668,58.392 L170.44,53.93 Z M238.056,56.644 L223.658,56.644 L223.658,50.94 C227.2,50.618 231.386,49.974 234.652,49.238 L231.662,44.224 C224.9,45.604 215.562,46.662 206.362,46.984 L208.524,52.136 C211.882,52.044 214.78,51.86 217.954,51.676 L217.954,56.644 L202.82,56.644 L202.82,62.302 L217.816,62.302 C217.862,67.316 214.044,72.514 207.42,75.918 L211.238,80.932 C218.966,76.332 223.382,69.524 223.382,62.302 L238.056,62.302 L238.056,56.644 Z M255.09,63.866 L262.726,62.578 C261.622,64.05 260.38,65.752 258.632,67.454 L261.76,70.904 C264.52,68.512 267.464,64.878 270.178,60.416 L266.774,56.644 L254.17,58.484 L252.928,51.124 L247.638,52.044 L249.018,59.358 L240.232,60.692 L241.152,66.074 L249.846,64.832 L252.698,81.07 L258.126,79.92 L255.09,63.866 Z M304.646,60.14 L275.574,60.14 L275.574,63.866 L304.646,63.866 L304.646,60.14 Z M338.516,64.418 C334.422,60.968 329.086,57.564 323.06,54.758 L323.06,44.638 L317.264,44.638 L317.264,80.012 L323.06,80.012 L323.06,61.198 C327.292,63.544 331.34,66.074 334.744,69.064 L338.516,64.418 Z"/>
    <path d="M161.8,19.84 L161.8,22.816 C160.768,22.984 159.616,23.056 158.392,23.056 C156.616,23.056 155.176,22.672 154.024,21.976 C152.704,21.088 152.056,19.792 152.056,18.112 C152.056,17.128 152.344,16.456 153.016,15.664 C153.64,14.896 154,14.728 154.48,14.536 C151.504,14.896 149.632,15.16 146.872,15.64 L146.44,13.096 C150.256,11.44 153.496,9.616 156.568,7.456 C153.928,7.72 152.056,7.888 149.224,7.96 L149.224,5.008 C152.968,4.984 156.52,4.768 160.264,4.384 L161.776,6.688 C158.872,9.184 155.464,11.2 152.248,12.616 C155.944,12.04 159.832,11.392 164.08,11.128 L164.08,13.984 C161.512,13.96 159.376,14.392 157.48,15.352 C155.824,16.144 154.96,17.008 154.96,18.112 C154.96,18.76 155.32,19.288 155.944,19.624 C156.568,19.936 157.36,20.056 158.416,20.056 C159.616,20.056 160.744,19.984 161.8,19.84 Z M172.808,8.272 C171.464,8.44 170.192,9.064 169.064,10.384 C167.936,11.728 167.408,13.312 167.408,15.184 C167.408,16.072 167.6,16.864 167.96,17.56 C168.32,18.16 168.704,18.496 169.136,18.496 C169.712,18.496 170.36,17.584 171.104,15.832 C171.872,13.768 172.424,11.344 172.808,8.272 Z M175.184,22.624 L173.672,19.744 C176.12,19.456 177.92,18.808 179.072,17.8 C180.248,16.864 180.8,15.592 180.8,14.008 C180.8,12.208 180.296,10.84 179.216,9.784 C178.28,8.8 177.152,8.2 175.832,8.08 C175.472,11.944 174.704,15.136 173.624,17.512 C172.448,20.272 170.96,21.64 169.112,21.64 C167.744,21.64 166.64,20.992 165.728,19.696 C164.912,18.472 164.456,17.008 164.456,15.256 C164.456,12.328 165.368,9.952 167.264,8.056 C169.208,6.112 171.704,5.104 174.848,5.104 C177.68,5.104 179.888,5.944 181.472,7.648 C183.056,9.208 183.848,11.416 183.848,14.008 C183.848,16.504 183.008,18.52 181.328,20.08 C179.768,21.424 177.776,22.288 175.184,22.624 Z M200.184,23.488 L196.968,23.488 L196.968,22.288 L188.688,22.288 L188.688,23.824 L185.568,23.824 L185.568,4.024 L200.184,4.024 L200.184,23.488 Z M188.688,14.44 L188.688,19.384 L196.968,19.384 L196.968,14.44 L188.688,14.44 Z M188.688,6.976 L188.688,11.512 L196.968,11.512 L196.968,6.976 L188.688,6.976 Z M202.72,21.52 L202.72,17.944 L206.656,17.944 L206.656,21.52 L202.72,21.52 Z M202.96,15.496 L202.336,3.928 L206.992,3.928 L206.416,15.496 L202.96,15.496 Z M220.096,21.016 L220.096,6.88 L215.368,6.88 L215.368,4.552 L227.728,4.552 L227.728,6.88 L223.048,6.88 L223.048,21.016 L220.096,21.016 Z M234.92,21.28 C230.48,21.28 227.528,18.496 227.528,13.048 L227.528,12.52 C227.528,7.216 230.576,4.288 235.064,4.288 C239.456,4.288 242.456,7.024 242.456,12.52 L242.456,13.048 C242.456,18.376 239.384,21.28 234.92,21.28 Z M235.016,19 C237.896,19 239.312,16.72 239.312,13.36 L239.312,12.544 C239.312,8.848 238.112,6.616 234.92,6.592 C232.064,6.592 230.672,8.848 230.672,12.184 L230.672,13.024 C230.672,16.744 231.872,19 235.016,19 Z M243.504,21.016 L243.504,4.552 L249.264,4.552 C253.128,4.552 255.072,6.352 255.072,9.616 C255.072,13.048 252.888,14.848 249.456,14.848 L246.456,14.848 L246.456,21.016 L243.504,21.016 Z M246.456,12.64 L248.904,12.64 C251.136,12.64 251.976,11.704 251.976,9.784 C251.976,7.624 251.136,6.832 248.952,6.832 L246.456,6.832 L246.456,12.64 Z M259.424,21.016 L259.424,19.288 L262.568,15.976 C264.848,13.576 266.672,11.536 266.672,9.472 C266.672,7.48 265.592,6.712 263.504,6.712 C262.352,6.712 261.008,7.264 260.096,7.816 L259.616,5.632 C260.72,4.984 262.4,4.384 264.296,4.384 C267.896,4.384 269.744,6.112 269.744,9.088 C269.744,12.016 267.248,14.632 265.232,16.72 L263.288,18.712 L269.888,18.712 L269.888,21.016 L259.424,21.016 Z M276.696,21.304 C273.096,21.304 270.312,19 270.312,13.408 L270.312,12.376 C270.312,6.496 273.336,4.384 276.72,4.384 C280.128,4.384 283.056,6.52 283.056,12.304 L283.056,13.336 C283.056,19.12 280.128,21.304 276.696,21.304 Z M276.696,19.048 C278.904,19.048 280.008,17.464 280.008,13.528 L280.008,12.304 C280.008,8.392 278.88,6.664 276.72,6.664 C274.488,6.664 273.384,8.296 273.384,12.136 L273.384,13.408 C273.384,17.224 274.464,19.048 276.696,19.048 Z"/>
  </g>
</svg>
