<svg xmlns="http://www.w3.org/2000/svg" xmlns:xlink="http://www.w3.org/1999/xlink" width="53" height="28" viewBox="0 0 53 28">
  <defs>
    <path id="slider-handle-a" d="M10.2622689,13.3310559 L15.3305919,8.26273292 C15.6809025,7.91242236 16.2473621,7.91242236 16.5939459,8.26273292 L17.436182,9.10496894 C17.7864925,9.4552795 17.7864925,10.0217391 17.436182,10.368323 L13.8473621,13.9645963 L17.4399087,17.5571429 C17.7902192,17.9074534 17.7902192,18.473913 17.4399087,18.8204969 L16.5976727,19.6664596 C16.2473621,20.0167702 15.6809025,20.0167702 15.3343186,19.6664596 L10.2659956,14.5981366 C9.91195837,14.2478261 9.91195837,13.6813665 10.2622689,13.3310559 Z M42.436646,14.5981366 L37.368323,19.6664596 C37.0180124,20.0167702 36.4515528,20.0167702 36.1049689,19.6664596 L35.2627329,18.8242236 C34.9124224,18.473913 34.9124224,17.9074534 35.2627329,17.5608696 L38.8552795,13.968323 L35.2627329,10.3757764 C34.9124224,10.0254658 34.9124224,9.45900621 35.2627329,9.11242236 L36.1012422,8.26273292 C36.4515528,7.91242236 37.0180124,7.91242236 37.3645963,8.26273292 L42.4329193,13.3310559 C42.7869565,13.6813665 42.7869565,14.2478261 42.436646,14.5981366 Z"/>
  </defs>
  <g fill="none" fill-rule="evenodd">
    <path fill="#D0021B" d="M0,0 L53,0 C53,4.17867567 53,8.84534233 53,14 C53,19.1546577 53,23.8213243 53,28 L0,28 C9.80697005e-16,23.8213243 1.22587126e-15,19.1546577 7.35522754e-16,14 C2.45174251e-16,8.84534233 0,4.17867567 0,0 Z"/>
    <use fill="#D8D8D8" xlink:href="#slider-handle-a"/>
    <use fill="#FFF" xlink:href="#slider-handle-a"/>
    <circle cx="26.5" cy="14.5" r="2.5" fill="#FFF" fill-rule="nonzero"/>
  </g>
</svg>
