<svg xmlns="http://www.w3.org/2000/svg" width="75" height="18" viewBox="0 0 75 18">
  <path fill="#FFF" fill-rule="evenodd" d="M6.8727176,13.9207218 L6.8727176,17.0573982 L0,17.0573982 L0,7.06798306 L3.05676103,7.06798306 L3.05676103,3.89134905 L0,3.89134905 L0,0.734693878 L6.2134162,0.734693878 L6.2134162,10.1846806 L3.15665518,10.1846806 L3.15665518,13.9207218 L6.8727176,13.9207218 Z M7.79099588,10.3245324 L6.6122449,10.3245324 L6.6122449,6.94811008 L7.79099588,6.94811008 L7.79099588,0.734693878 L11.067524,0.734693878 L11.067524,17.7166996 L7.79099588,17.7166996 L7.79099588,10.3245324 Z M11.755102,17.6290563 L11.755102,0.367346939 L15.1115455,0.367346939 L15.1115455,17.6290563 L11.755102,17.6290563 Z M33.7587742,14.7196969 L33.7587742,17.8563733 L18.7346939,17.8563733 L18.7346939,12.122449 L22.1510738,12.122449 L22.1510738,14.7196969 L33.7587742,14.7196969 Z M33.171482,0.367346939 L33.171482,13.073883 L29.755102,13.073883 L29.755102,0.367346939 L33.171482,0.367346939 Z M18.0045228,3.53173011 L18.0045228,0.734693878 L27.5943614,0.734693878 L27.5943614,3.53173011 L24.3777697,3.53173011 C24.337812,4.01122204 24.2578967,4.49071396 24.1580026,4.97020589 C25.2368594,6.52855464 27.0149753,8.02696691 28.5933029,8.98595076 L26.5354833,11.3634316 C25.3367535,10.5842572 23.9981719,9.44546386 22.9193151,8.22675521 C22.100183,9.68520982 21.0013474,10.8839396 19.8026176,11.663114 L17.2653061,9.56533684 C19.3630833,8.24673404 20.6617073,6.18891453 21.0013474,3.53173011 L18.0045228,3.53173011 Z M42.9976832,17.3216458 L40.0408163,15.6234452 C42.5381701,12.6266207 43.8767517,9.74966915 44.0166035,5.19449586 L40.780033,5.19449586 L40.780033,2.07779834 L44.0166035,2.07779834 L44.0166035,0 L47.4729412,0 L47.4729412,2.07779834 L50.789427,2.07779834 L50.789427,5.19449586 L47.4329835,5.19449586 C47.4130047,6.23339503 47.3131105,7.19237888 47.1932375,8.11140507 C48.1921791,10.7286318 49.7705066,13.0062185 51.7484108,14.8842285 L49.1711417,17.0818998 C47.8525389,15.8432124 46.7537033,14.3248213 45.8746348,12.706536 C45.1553969,14.3647789 44.1764342,15.8631912 42.9976832,17.3216458 Z M55.5796453,9.83731247 L55.5796453,17.6290563 L52.1632653,17.6290563 L52.1632653,0.367346939 L55.5796453,0.367346939 L55.5796453,6.46089016 L57.6374648,6.46089016 L57.6374648,9.83731247 L55.5796453,9.83731247 Z M73.7995905,5.01016355 L73.7995905,7.86713627 L62.1918902,7.86713627 L62.1918902,9.36554854 L73.9794,9.36554854 L73.9794,12.3024366 L58.7755102,12.3024366 L58.7755102,0.734693878 L73.7995905,0.734693878 L73.7995905,3.69156075 L62.1918902,3.69156075 L62.1918902,5.01016355 L73.7995905,5.01016355 Z M74.5633089,13.9591837 L74.5633089,17.09586 L58.0408163,17.09586 L58.0408163,13.9591837 L74.5633089,13.9591837 Z"/>
</svg>
