<svg xmlns="http://www.w3.org/2000/svg" width="426" height="77" viewBox="0 0 426 77">
  <g fill="#FFF" fill-rule="evenodd">
    <path d="M289.980001,68 L298.490001,68 L298.490001,52.176 L314.728001,68.046 L317.672001,68.046 L317.672001,35.8 L309.254001,35.8 L309.254001,51.578 L292.970001,35.662 L289.980001,35.662 L289.980001,66.0086078 L275.812001,35.386 L272.270001,35.386 L258.724371,64.7563661 L253.686001,56.592 C261.828001,51.072 259.528001,35.846 246.878001,35.8 L232.756001,35.8 L232.756001,68 L240.990001,68 L240.990001,58.524 L245.268001,58.524 L250.788001,68 L257.780001,68 L265.830001,68 L267.716001,63.952 L280.412001,63.952 L282.298001,68 L289.980001,68 Z M122.586,65.7573783 L122.586,60.686 L110.258,60.686 L110.258,55.028 L121.206,55.028 L121.206,47.714 L110.258,47.714 L110.258,43.16 L122.172,43.16 L122.172,35.8 L102.07,35.8 L102.07,68 L122.034,68 L147.748,68 L147.748,60.64 L134.546,60.64 L147.61,37.042 L147.61,35.8 L123.23,35.8 L123.23,43.16 L135.052,43.16 L122.586,65.7573783 Z M66.842283,65.155512 C56.5044757,68.0294573 45.2726101,69.8775869 34.9431196,69.5245734 C9.01543297,68.7479437 3.28098552,60.2880786 3.28098552,60.3129972 C17.5942329,58.439949 28.3312476,47.6460417 28.3312476,47.6252762 C8.99879933,35.0621482 0.00415841004,22.4034989 0,22.3827334 C16.6128481,30.1324183 47.7260721,19.0934781 58.7666507,14.695345 C107.220445,-4.32585373 106.338862,13.7775099 106.338862,13.8564188 C106.338862,13.8564188 106.338862,14.3714032 106.330545,15.2601666 C106.093515,17.5526779 104.708765,21.4026018 98.9784758,22.6651442 C90.8778931,24.438518 86.5323546,14.2177385 78.3236532,14.3132598 C70.7345548,14.3963218 70.0109915,18.923201 70.1024765,21.0994255 C70.1024765,20.912536 70.1024765,20.7256465 70.1024765,20.538757 C70.4850502,26.3530972 75.8701912,26.9511436 77.0553381,26.9428374 C143.373661,26.30326 209.708618,26.1288298 276.035259,26.427853 C300.341165,26.5358336 324.642914,26.7061107 348.944662,26.9428374 C350.129809,26.9511436 355.51495,26.3530972 355.901682,20.538757 C355.901682,20.7256465 355.901682,20.9166891 355.901682,21.1077317 C355.993167,18.9315072 355.273762,14.3963218 347.676347,14.3132598 C339.467645,14.2177385 335.122107,24.438518 327.021524,22.6651442 C321.295394,21.4026018 319.906485,17.556831 319.669455,15.2601666 C319.661138,14.3755563 319.661138,13.8564188 319.661138,13.8564188 C319.665297,13.7775099 318.779555,-4.32585373 367.237508,14.695345 C378.273928,19.0934781 409.39131,30.1324183 426,22.3827334 C426,22.4034989 417.001201,35.0621482 397.668752,47.6252762 C397.668752,47.6460417 408.405767,58.439949 422.719014,60.3129972 C422.719014,60.2880786 416.988725,68.7479437 391.05688,69.5245734 C380.498677,69.8858931 368.992357,67.9422422 358.463262,64.9561632 L355.901682,49.3737314 C355.901682,52.5259344 355.901682,55.6822905 355.901682,58.8344936 C355.901682,67.8591802 350.146442,75.3347605 343.052195,75.5133438 C321.428463,76.0075627 299.80473,76.3813418 278.180998,76.6263747 C212.906436,77.3739327 147.631873,77.0001537 82.3656277,75.5008845 C75.5915778,75.3306074 70.1024765,68.1955813 70.1024765,59.5778985 C70.1024765,53.6804963 70.1024765,47.7872471 70.1024765,41.8898449 L66.842283,65.155512 Z M89.328,35.8 L81.048,35.8 L81.048,68 L101.012,68 L101.012,60.594 L89.328,60.594 L89.328,35.8 Z M175.394,35.8 L166.976,35.8 L166.976,47.484 L157.04,47.484 L157.04,35.8 L148.622,35.8 L148.622,68 L157.04,68 L157.04,55.074 L166.976,55.074 L166.976,68 L175.394,68 L175.394,35.8 Z M188.596,60.778 L188.596,42.976 L192.368,42.976 L192.368,35.8 L176.682,35.8 L176.682,42.976 L180.454,42.976 L180.454,60.778 L176.36,60.778 L176.36,68 L192.69,68 L192.69,60.778 L188.596,60.778 Z M218.22,68.046 L221.164,68.046 L221.164,35.8 L212.746,35.8 L212.746,51.578 L196.462,35.662 L193.472,35.662 L193.472,68 L201.982,68 L201.982,52.176 L218.22,68.046 Z M329.678001,68 L329.678001,55.718 C330.736001,55.718 331.748001,55.718 332.852001,55.534 L339.936001,68 L349.090001,68 L349.090001,66.712 L340.350001,52.544 C346.744001,48.45 346.560001,42.378 346.560001,35.8 C343.708001,35.8 340.902001,35.8 338.096001,35.8 C338.096001,41.826 338.510001,47.99 330.276001,47.99 L329.678001,47.99 L329.678001,35.8 C326.826001,35.8 324.066001,35.8 321.306001,35.8 L321.306001,68 C324.066001,68 326.826001,68 329.678001,68 Z"/>
    <path d="M246.878001,51.21 C251.340001,51.21 251.570001,43.206 246.878001,43.16 C244.946001,43.114 242.922001,43.16 240.990001,43.16 L240.990001,51.21 L246.878001,51.21 Z"/>
    <polygon points="277.744 56.914 274.018 48.45 270.384 56.914"/>
    <polygon points="97.884 64.504 97.884 64.09 85.464 64.09 85.464 38.928 84.958 38.928 84.958 64.504"/>
    <polygon points="105.934 39.204 105.934 64.596 119.458 64.596 119.458 64.136 106.44 64.136 106.44 51.578 118.124 51.578 118.124 51.118 106.44 51.118 106.44 39.664 119.044 39.664 119.044 39.204"/>
    <polygon points="125.99 39.71 141.17 39.71 127.968 64.55 144.298 64.55 144.298 64.136 128.658 64.136 141.86 39.25 125.99 39.25"/>
    <polygon points="152.532 64.872 153.038 64.872 153.038 51.578 170.978 51.578 170.978 64.872 171.438 64.872 171.438 38.882 170.978 38.882 170.978 51.026 153.038 51.026 153.038 38.882 152.532 38.882"/>
    <polygon points="184.318 64.182 179.442 64.182 179.442 64.642 189.562 64.642 189.562 64.182 184.778 64.182 184.778 39.664 189.194 39.664 189.194 39.204 179.856 39.204 179.856 39.664 184.318 39.664"/>
    <path d="M197.382 42.286L197.382 64.826 197.934 64.826 197.934 43.068C201.154 46.15 204.374 49.324 207.502 52.406 210.584 55.442 213.666 58.432 216.84 61.514L217.208 61.514 217.208 38.928 216.702 38.928 216.702 60.732C213.482 57.558 210.308 54.384 207.042 51.348 204.052 48.312 200.97 45.276 197.888 42.286L197.382 42.286zM157.99 2.992L154.84 2.992 154.84 13 151.69 13 151.69 2.992 148.54 2.992 148.54.184 157.99.184 157.99 2.992zM167.175143 13L164.223143 13 164.223143 7.132C164.223143 6.67599772 164.079144 6.33400114 163.791143 6.106 163.587142 5.94999922 163.353144 5.872 163.089143 5.872 162.825142 5.872 162.591144 5.94999922 162.387143 6.106 162.099141 6.33400114 161.955143 6.67599772 161.955143 7.132L161.955143 13 159.003143 13 159.003143.184 161.955143.184 161.955143 4.108C162.555146 3.507997 163.263139 3.208 164.079143 3.208 165.087148 3.208 165.86714 3.54999658 166.419143 4.234 166.923145 4.85800312 167.175143 5.68599484 167.175143 6.718L167.175143 13zM176.252286 13L173.372286 13 173.372286 12.208C172.784283 12.7960029 172.06429 13.09 171.212286 13.09 170.240281 13.09 169.469289 12.8050028 168.899286 12.235 168.329283 11.6649971 168.044286 10.9060047 168.044286 9.958 168.044286 9.16599604 168.308283 8.51800252 168.836286 8.014 169.424289 7.43799712 170.25828 7.15 171.338286 7.15L173.300286 7.15 173.300286 6.898C173.300286 6.09399598 172.814291 5.692 171.842286 5.692 171.242283 5.692 170.726288 5.90799784 170.294286 6.34L168.458286 4.504C168.950288 4.01199754 169.454283 3.67300093 169.970286 3.487 170.486288 3.30099907 171.158282 3.208 171.986286 3.208 174.8303 3.208 176.252286 4.3779883 176.252286 6.718L176.252286 13zM173.300286 9.364L173.300286 9.112 171.806286 9.112C171.182283 9.112 170.870286 9.36999742 170.870286 9.886 170.870286 10.4260027 171.194282 10.696 171.842286 10.696 172.370288 10.696 172.760284 10.5760012 173.012286 10.336 173.204287 10.1559991 173.300286 9.83200234 173.300286 9.364zM182.377429 13L180.901429 13C179.905424 13 179.137431 12.6880031 178.597429 12.064 178.129426 11.5359974 177.895429 10.8940038 177.895429 10.138L177.895429 5.962 177.013429 5.962 177.013429 3.694 177.895429 3.694 177.895429.922 180.847429.922 180.847429 3.694 182.377429 3.694 182.377429 5.962 180.847429 5.962 180.847429 9.922C180.847429 10.318002 181.045427 10.516 181.441429 10.516L182.377429 10.516 182.377429 13zM194.933714 13L192.071714 13 192.071714 12.208C191.471711 12.808003 190.727719 13.108 189.839714 13.108 188.855709 13.108 188.069717 12.8140029 187.481714 12.226 187.061712 11.8059979 186.791715 11.1880041 186.671714 10.372 186.611714 9.9519979 186.581714 9.21400528 186.581714 8.158 186.581714 7.10199472 186.611714 6.3640021 186.671714 5.944 186.791715 5.12799592 187.061712 4.5100021 187.481714 4.09 188.069717 3.50199706 188.849709 3.208 189.821714 3.208 190.721719 3.208 191.441712 3.4779973 191.981714 4.018L191.981714.184 194.933714.184 194.933714 13zM191.981714 8.158C191.981714 7.35399598 191.915715 6.79600156 191.783714 6.484 191.603713 6.07599796 191.261717 5.872 190.757714 5.872 190.253712 5.872 189.911715 6.07599796 189.731714 6.484 189.599714 6.79600156 189.533714 7.35399598 189.533714 8.158 189.533714 8.96200402 189.599714 9.51999844 189.731714 9.832 189.911715 10.240002 190.253712 10.444 190.757714 10.444 191.261717 10.444 191.603713 10.240002 191.783714 9.832 191.915715 9.51999844 191.981714 8.96200402 191.981714 8.158zM204.100857 13L201.220857 13 201.220857 12.208C200.632854 12.7960029 199.912861 13.09 199.060857 13.09 198.088852 13.09 197.31786 12.8050028 196.747857 12.235 196.177854 11.6649971 195.892857 10.9060047 195.892857 9.958 195.892857 9.16599604 196.156855 8.51800252 196.684857 8.014 197.27286 7.43799712 198.106852 7.15 199.186857 7.15L201.148857 7.15 201.148857 6.898C201.148857 6.09399598 200.662862 5.692 199.690857 5.692 199.090854 5.692 198.574859 5.90799784 198.142857 6.34L196.306857 4.504C196.79886 4.01199754 197.302855 3.67300093 197.818857 3.487 198.33486 3.30099907 199.006853 3.208 199.834857 3.208 202.678871 3.208 204.100857 4.3779883 204.100857 6.718L204.100857 13zM201.148857 9.364L201.148857 9.112 199.654857 9.112C199.030854 9.112 198.718857 9.36999742 198.718857 9.886 198.718857 10.4260027 199.042854 10.696 199.690857 10.696 200.21886 10.696 200.608856 10.5760012 200.860857 10.336 201.052858 10.1559991 201.148857 9.83200234 201.148857 9.364zM213.808 3.316L209.794 14.152C209.277997 15.544007 208.300007 16.24 206.86 16.24L205.744 16.24 205.744 13.576 206.374 13.576C206.878003 13.576 207.207999 13.3360024 207.364 12.856L207.634 12.046 204.412 3.316 207.508 3.316 209.146 8.338 210.712 3.316 213.808 3.316zM218.529143.184L217.737143 8.734 215.613143 8.734 214.821143.184 218.529143.184zM218.187143 13L215.163143 13 215.163143 10.102 218.187143 10.102 218.187143 13zM235.428572 1.048L231.594572 1.048 231.594572 13 230.622572 13 230.622572 1.048 226.806572 1.048 226.806572.184 235.428572.184 235.428572 1.048zM245.585714 6.592C245.585714 8.2120081 245.531715 9.29799724 245.423714 9.85 245.279714 10.6060038 244.937717 11.2539973 244.397714 11.794 243.52171 12.6700044 242.453721 13.108 241.193714 13.108 239.933708 13.108 238.865719 12.6700044 237.989714 11.794 237.449712 11.2539973 237.107715 10.6060038 236.963714 9.85 236.855714 9.29799724 236.801714 8.2120081 236.801714 6.592 236.801714 4.9719919 236.855714 3.88600276 236.963714 3.334 237.107715 2.57799622 237.449712 1.9300027 237.989714 1.39 238.865719.51399562 239.933708.076 241.193714.076 242.453721.076 243.52171.51399562 244.397714 1.39 244.937717 1.9300027 245.279714 2.57799622 245.423714 3.334 245.531715 3.88600276 245.585714 4.9719919 245.585714 6.592zM244.613714 6.592C244.613714 5.11599262 244.565715 4.1080027 244.469714 3.568 244.337714 2.9079967 244.055717 2.36200216 243.623714 1.93 242.963711 1.2699967 242.153719.94 241.193714.94 240.23371.94 239.423718 1.2699967 238.763714 1.93 238.331712 2.36200216 238.049715 2.9079967 237.917714 3.568 237.821714 4.1080027 237.773714 5.11599262 237.773714 6.592 237.773714 8.06800738 237.821714 9.0759973 237.917714 9.616 238.049715 10.2760033 238.331712 10.8219978 238.763714 11.254 239.423718 11.9140033 240.23371 12.244 241.193714 12.244 242.153719 12.244 242.963711 11.9140033 243.623714 11.254 244.055717 10.8219978 244.337714 10.2760033 244.469714 9.616 244.565715 9.0759973 244.613714 8.06800738 244.613714 6.592zM256.966857 3.874C256.966857 5.0140057 256.606861 5.9139967 255.886857 6.574 255.166854 7.2340033 254.236863 7.564 253.096857 7.564L249.370857 7.564 249.370857 13 248.398857 13 248.398857.184 253.096857.184C254.236863.184 255.166854.5139967 255.886857 1.174 256.606861 1.8340033 256.966857 2.7339943 256.966857 3.874zM255.994857 3.874C255.994857 2.93799532 255.71286 2.22400246 255.148857 1.732 254.620855 1.27599772 253.900862 1.048 252.988857 1.048L249.370857 1.048 249.370857 6.7 252.988857 6.7C253.900862 6.7 254.629855 6.46300237 255.175857 5.989 255.72186 5.51499763 255.994857 4.81000468 255.994857 3.874zM269.163143 13L262.377143 13 262.377143 12.19 267.525143 5.44C268.005145 4.81599688 268.245143 4.15000354 268.245143 3.442 268.245143 2.6619961 268.026145 2.04100231 267.588143 1.579 267.150141 1.11699769 266.547147.886 265.779143.886 265.059139.886 264.483145 1.08399802 264.051143 1.48 263.559141 1.93600228 263.313143 2.58999574 263.313143 3.442L262.395143 3.442C262.395143 2.45799508 262.69814 1.65100315 263.304143 1.021 263.910146.39099685 264.735138.076 265.779143.076 266.799148.076 267.61814.38199694 268.236143.994 268.854146 1.60600306 269.163143 2.4219949 269.163143 3.442 269.163143 4.31800438 268.869146 5.13999616 268.281143 5.908L263.475143 12.19 269.163143 12.19 269.163143 13zM277.682286 9.688C277.682286 10.684005 277.367289 11.5029968 276.737286 12.145 276.107283 12.7870032 275.300291 13.108 274.316286 13.108 273.332281 13.108 272.525289 12.7870032 271.895286 12.145 271.265283 11.5029968 270.950286 10.684005 270.950286 9.688L270.950286 3.496C270.950286 2.49999502 271.265283 1.68100321 271.895286 1.039 272.525289.39699679 273.332281.076 274.316286.076 275.300291.076 276.107283.39699679 276.737286 1.039 277.367289 1.68100321 277.682286 2.49999502 277.682286 3.496L277.682286 9.688zM276.764286 9.598L276.764286 3.586C276.764286 2.79399604 276.551288 2.14600252 276.125286 1.642 275.699284 1.13799748 275.09629.886 274.316286.886 273.536282.886 272.933288 1.13799748 272.507286 1.642 272.081284 2.14600252 271.868286 2.79399604 271.868286 3.586L271.868286 9.598C271.868286 10.390004 272.078284 11.0259976 272.498286 11.506 272.930288 12.0340026 273.536282 12.298 274.316286 12.298 275.09629 12.298 275.702284 12.0340026 276.134286 11.506 276.554288 11.0259976 276.764286 10.390004 276.764286 9.598z"/>
  </g>
</svg>
