<svg xmlns="http://www.w3.org/2000/svg" width="426" height="79" viewBox="0 0 426 79">
  <g fill="#FFF" fill-rule="evenodd" transform="translate(0 -1)">
    <path d="M66.842283,68.155512 C56.5044757,71.0294573 45.2726101,72.8775869 34.9431196,72.5245734 C9.01543297,71.7479437 3.28098552,63.2880786 3.28098552,63.3129972 C17.5942329,61.439949 28.3312476,50.6460417 28.3312476,50.6252762 C8.99879933,38.0621482 0.00415841004,25.4034989 0,25.3827334 C16.6128481,33.1324183 47.7260721,22.0934781 58.7666507,17.695345 C107.220445,-1.32585373 106.338862,16.7775099 106.338862,16.8564188 C106.338862,16.8564188 106.338862,17.3714032 106.330545,18.2601666 C106.093515,20.5526779 104.708765,24.4026018 98.9784758,25.6651442 C90.8778931,27.438518 86.5323546,17.2177385 78.3236532,17.3132598 C70.7345548,17.3963218 70.0109915,21.923201 70.1024765,24.0994255 C70.1024765,23.912536 70.1024765,23.7256465 70.1024765,23.538757 C70.4850502,29.3530972 75.8701912,29.9511436 77.0553381,29.9428374 C143.373661,29.30326 209.708618,29.1288298 276.035259,29.427853 C300.341165,29.5358336 324.642914,29.7061107 348.944662,29.9428374 C350.129809,29.9511436 355.51495,29.3530972 355.901682,23.538757 C355.901682,23.7256465 355.901682,23.9166891 355.901682,24.1077317 C355.993167,21.9315072 355.273762,17.3963218 347.676347,17.3132598 C339.467645,17.2177385 335.122107,27.438518 327.021524,25.6651442 C321.295394,24.4026018 319.906485,20.556831 319.669455,18.2601666 C319.661138,17.3755563 319.661138,16.8564188 319.661138,16.8564188 C319.665297,16.7775099 318.779555,-1.32585373 367.237508,17.695345 C378.273928,22.0934781 409.39131,33.1324183 426,25.3827334 C426,25.4034989 417.001201,38.0621482 397.668752,50.6252762 C397.668752,50.6460417 408.405767,61.439949 422.719014,63.3129972 C422.719014,63.2880786 416.988725,71.7479437 391.05688,72.5245734 C380.498677,72.8858931 368.992357,70.9422422 358.463262,67.9561632 L355.901682,52.3737314 C355.901682,55.5259344 355.901682,58.6822905 355.901682,61.8344936 C355.901682,70.8591802 350.146442,78.3347605 343.052195,78.5133438 C321.428463,79.0075627 299.80473,79.3813418 278.180998,79.6263747 C212.906436,80.3739327 147.631873,80.0001537 82.3656277,78.5008845 C75.5915778,78.3306074 70.1024765,71.1955813 70.1024765,62.5778985 C70.1024765,56.6804963 70.1024765,50.7872471 70.1024765,44.8898449 L66.842283,68.155512 Z M129.709065,67.9619973 L119.593117,67.9619973 L119.593117,57.7916628 L127.9143,57.7916628 L127.9143,32.066699 L111,32.066699 L111,40.6598159 L119.321183,40.6598159 L119.321183,49.3073195 L111,49.3073195 L111,76.5007274 L129.709065,76.5007274 L129.709065,67.9619973 Z M132.210858,57.9004364 L132.210858,78.0235582 L141.130296,78.0235582 L141.130296,31.7947649 L132.210858,31.7947649 L132.210858,48.7090646 L129.002036,48.7090646 L129.002036,57.9004364 L132.210858,57.9004364 Z M143.305768,78.5674264 L152.442754,78.5674264 L152.442754,31.5772177 L143.305768,31.5772177 L143.305768,78.5674264 Z M202.424237,70.0286963 L170.825497,70.0286963 L170.825497,62.9584103 L161.525352,62.9584103 L161.525352,78.5674264 L202.424237,78.5674264 L202.424237,70.0286963 Z M201.390888,31.5772177 L192.090742,31.5772177 L192.090742,66.1672324 L201.390888,66.1672324 L201.390888,31.5772177 Z M159.948134,39.6808532 L168.106156,39.6808532 C167.181581,46.9142997 163.646438,52.5161417 157.935822,56.1056715 L164.842947,61.8162871 C168.106156,59.6952013 171.097431,56.4319924 173.327291,52.4617549 C176.264179,55.7793506 179.908095,58.8793991 183.171304,61.0004849 L188.773146,54.5284538 C184.476588,51.9178867 179.636161,47.8388755 176.699273,43.5967039 C176.971207,42.2914203 177.188755,40.9861368 177.297528,39.6808532 L186.053806,39.6808532 L186.053806,32.066699 L159.948134,32.066699 L159.948134,39.6808532 Z M227.714106,77.1533691 C230.922928,73.1831316 233.587882,69.1041204 235.545808,64.5900147 C237.938828,68.9953468 240.930103,73.1287448 244.519632,76.5007274 L251.535532,70.5181776 C246.151237,65.405817 241.854678,59.20572 239.135338,52.0810471 C239.461659,49.5792536 239.733593,46.9686865 239.787979,44.1405721 L248.924964,44.1405721 L248.924964,35.6562288 L239.896753,35.6562288 L239.896753,30 L230.487834,30 L230.487834,35.6562288 L221.67717,35.6562288 L221.67717,44.1405721 L230.487834,44.1405721 C230.107126,56.540766 226.46321,64.3724675 219.664858,72.5304898 L227.714106,77.1533691 Z M262.086574,57.3565683 L267.688416,57.3565683 L267.688416,48.1651964 L262.086574,48.1651964 L262.086574,31.5772177 L252.786428,31.5772177 L252.786428,78.5674264 L262.086574,78.5674264 L262.086574,57.3565683 Z M312.068057,43.7054775 L280.469317,43.7054775 L280.469317,40.1159477 L312.068057,40.1159477 L312.068057,32.066699 L271.169172,32.066699 L271.169172,63.5566652 L312.557539,63.5566652 L312.557539,55.5618033 L280.469317,55.5618033 L280.469317,51.4827922 L312.068057,51.4827922 L312.068057,43.7054775 Z M314.08037,68.4514786 L269.102473,68.4514786 L269.102473,76.9902087 L314.08037,76.9902087 L314.08037,68.4514786 Z"/>
    <path d="M156.78,14.6 L153.36,14.6 L153.36,5.58 L141.74,5.58 L141.74,2.38 L156.78,2.38 L156.78,14.6 Z M157.52,15.72 L157.52,18.9 L140.98,18.9 L140.98,15.72 L157.52,15.72 Z M167.72,15.58 L167.72,18.72 L163.66,18.72 L163.66,2.38 L167.72,2.38 L167.72,5.54 L166.68,5.54 L166.68,15.58 L167.72,15.58 Z M163.24,15.58 L163.24,18.72 L159.54,18.72 L159.54,2.38 L163.24,2.38 L163.24,5.54 L162.56,5.54 L162.56,15.58 L163.24,15.58 Z M174.78,2.2 L174.78,19.48 L171.76,19.48 L171.76,11.58 L171.12,11.58 L171.12,19.28 L168.16,19.28 L168.16,2.28 L171.12,2.28 L171.12,8.42 L171.76,8.42 L171.76,2.2 L174.78,2.2 Z M197.48,14.6 L194.06,14.6 L194.06,5.58 L182.44,5.58 L182.44,2.38 L197.48,2.38 L197.48,14.6 Z M198.22,15.72 L198.22,18.9 L181.68,18.9 L181.68,15.72 L198.22,15.72 Z M215.48,17.08 L215.48,19.48 L200.62,19.48 L200.62,14.04 L211.68,14.04 L211.68,13.38 L200.62,13.38 L200.62,11 L215.1,11 L215.1,16.42 L204.04,16.42 L204.04,17.08 L215.48,17.08 Z M217.16,4.7 L217.16,8 L215.1,8 L215.1,10.34 L211.68,10.34 L211.68,2.2 L215.1,2.2 L215.1,4.7 L217.16,4.7 Z M203.66,7.3 L210.58,7.3 L210.58,10.08 L200.24,10.08 L200.24,2.38 L203.66,2.38 L203.66,7.3 Z M217.88,1.82 L221.3,1.82 L221.3,14.04 L217.88,14.04 L217.88,1.82 Z M221.48,19.28 L217.68,19.28 L217.68,15.54 L221.48,15.54 L221.48,19.28 Z M240.1,3.88 L236.42,3.88 L236.42,18.06 L235.4,18.06 L235.4,3.88 L231.92,3.88 L231.92,2.94 L240.1,2.94 L240.1,3.88 Z M249.3,13.66 L249.3,7.26 C249.3,5.02 248.26,3.7 245.92,3.7 C243.56,3.7 242.54,5.02 242.54,7.26 L242.54,13.66 C242.54,15.92 243.56,17.22 245.92,17.22 C248.26,17.22 249.3,15.92 249.3,13.66 Z M250.34,7.18 L250.34,13.76 C250.34,16.48 248.74,18.16 245.92,18.16 C243.1,18.16 241.5,16.48 241.5,13.76 L241.5,7.18 C241.5,4.44 243.1,2.76 245.92,2.76 C248.74,2.76 250.34,4.44 250.34,7.18 Z M261.22,7.46 C261.22,10.28 259.54,11.96 256.44,11.96 L253.8,11.96 L253.8,17.96 L252.76,17.96 L252.76,2.94 L256.44,2.94 C259.54,2.94 261.22,4.64 261.22,7.46 Z M260.2,7.46 C260.2,5.02 258.78,3.88 256.34,3.88 L253.8,3.88 L253.8,11.02 L256.34,11.02 C258.78,11.02 260.2,9.9 260.2,7.46 Z M267.86,17.96 L267.86,14.48 C267.86,13.1 268.22,12.24 269.48,11.46 L272.94,9.34 C273.96,8.72 274.52,7.76 274.52,6.52 C274.52,4.64 273.5,3.7 271.7,3.7 C269.82,3.7 268.88,4.64 268.88,6.52 L267.86,6.52 C267.86,4.08 269.36,2.76 271.7,2.76 C274.06,2.76 275.56,4.16 275.56,6.52 C275.56,8.2 274.84,9.36 273.54,10.12 L269.98,12.28 C269.14,12.78 268.86,13.48 268.86,14.44 L268.86,17.02 L275.56,17.02 L275.56,17.96 L267.86,17.96 Z M284.58,14.14 L284.58,6.8 C284.58,4.82 283.72,3.7 281.76,3.7 C279.78,3.7 278.94,4.82 278.94,6.8 L278.94,14.14 C278.94,16.1 279.78,17.22 281.76,17.22 C283.72,17.22 284.58,16.1 284.58,14.14 Z M285.6,6.7 L285.6,14.22 C285.6,16.66 284.2,18.16 281.76,18.16 C279.3,18.16 277.9,16.66 277.9,14.22 L277.9,6.7 C277.9,4.26 279.3,2.76 281.76,2.76 C284.2,2.76 285.6,4.26 285.6,6.7 Z"/>
  </g>
</svg>
