<svg xmlns="http://www.w3.org/2000/svg" xmlns:xlink="http://www.w3.org/1999/xlink" width="438" height="88" viewBox="0 0 438 88">
  <defs>
    <path id="ribbon-b" d="M66.842283,66.155512 L70.1024765,42.8898449 C70.1024765,48.7872471 70.1024765,54.6804963 70.1024765,60.5778985 C70.1024765,69.1955813 75.5915778,76.3306074 82.3656277,76.5008845 C147.631873,78.0001537 212.906436,78.3739327 278.180998,77.6263747 C299.80473,77.3813418 321.428463,77.0075627 343.052195,76.5133438 C350.146442,76.3347605 355.901682,68.8591802 355.901682,59.8344936 C355.901682,56.6822905 355.901682,53.5259344 355.901682,50.3737314 L358.463262,65.9561632 C368.992357,68.9422422 380.498677,70.8858931 391.05688,70.5245734 C416.988725,69.7479437 422.719014,61.2880786 422.719014,61.3129972 C408.405767,59.439949 397.668752,48.6460417 397.668752,48.6252762 C417.001201,36.0621482 426,23.4034989 426,23.3827334 C409.39131,31.1324183 378.273928,20.0934781 367.237508,15.695345 C318.779555,-3.32585373 319.665297,14.7775099 319.661138,14.8564188 C319.661138,14.8564188 319.661138,15.3755563 319.669455,16.2601666 C319.906485,18.556831 321.295394,22.4026018 327.021524,23.6651442 C335.122107,25.438518 339.467645,15.2177385 347.676347,15.3132598 C355.273762,15.3963218 355.993167,19.9315072 355.901682,22.1077317 C355.901682,21.9166891 355.901682,21.7256465 355.901682,21.538757 C355.51495,27.3530972 350.129809,27.9511436 348.944662,27.9428374 C324.642914,27.7061107 300.341165,27.5358336 276.035259,27.427853 C209.708618,27.1288298 143.373661,27.30326 77.0553381,27.9428374 C75.8701912,27.9511436 70.4850502,27.3530972 70.1024765,21.538757 C70.1024765,21.7256465 70.1024765,21.912536 70.1024765,22.0994255 C70.0109915,19.923201 70.7345548,15.3963218 78.3236532,15.3132598 C86.5323546,15.2177385 90.8778931,25.438518 98.9784758,23.6651442 C104.708765,22.4026018 106.093515,18.5526779 106.330545,16.2601666 C106.338862,15.3714032 106.338862,14.8564188 106.338862,14.8564188 C106.338862,14.7775099 107.220445,-3.32585373 58.7666507,15.695345 C47.7260721,20.0934781 16.6128481,31.1324183 0,23.3827334 C0.00415841004,23.4034989 8.99879933,36.0621482 28.3312476,48.6252762 C28.3312476,48.6460417 17.5942329,59.439949 3.28098552,61.3129972 C3.28098552,61.2880786 9.01543297,69.7479437 34.9431196,70.5245734 C45.2726101,70.8775869 56.5044757,69.0294573 66.842283,66.155512"/>
    <filter id="ribbon-a" width="105.6%" height="133.8%" x="-2.8%" y="-12.7%" filterUnits="objectBoundingBox">
      <feOffset dy="3" in="SourceAlpha" result="shadowOffsetOuter1"/>
      <feGaussianBlur in="shadowOffsetOuter1" result="shadowBlurOuter1" stdDeviation="3.5"/>
      <feColorMatrix in="shadowBlurOuter1" values="0 0 0 0 0.815686275   0 0 0 0 0.00784313725   0 0 0 0 0.105882353  0 0 0 0.2 0"/>
    </filter>
  </defs>
  <g fill="none" fill-rule="evenodd" transform="translate(6)">
    <use fill="#000" filter="url(#ribbon-a)" xlink:href="#ribbon-b"/>
    <use fill="#FFF" xlink:href="#ribbon-b"/>
    <path fill="#FFF" d="M156.8,12.78 L153.38,12.78 L153.38,3.76 L141.76,3.76 L141.76,0.56 L156.8,0.56 L156.8,12.78 Z M157.54,13.9 L157.54,17.08 L141,17.08 L141,13.9 L157.54,13.9 Z M167.74,13.76 L167.74,16.9 L163.68,16.9 L163.68,0.56 L167.74,0.56 L167.74,3.72 L166.7,3.72 L166.7,13.76 L167.74,13.76 Z M163.26,13.76 L163.26,16.9 L159.56,16.9 L159.56,0.56 L163.26,0.56 L163.26,3.72 L162.58,3.72 L162.58,13.76 L163.26,13.76 Z M174.8,0.38 L174.8,17.66 L171.78,17.66 L171.78,9.76 L171.14,9.76 L171.14,17.46 L168.18,17.46 L168.18,0.46 L171.14,0.46 L171.14,6.6 L171.78,6.6 L171.78,0.38 L174.8,0.38 Z M197.5,12.78 L194.08,12.78 L194.08,3.76 L182.46,3.76 L182.46,0.56 L197.5,0.56 L197.5,12.78 Z M198.24,13.9 L198.24,17.08 L181.7,17.08 L181.7,13.9 L198.24,13.9 Z M215.5,15.26 L215.5,17.66 L200.64,17.66 L200.64,12.22 L211.7,12.22 L211.7,11.56 L200.64,11.56 L200.64,9.18 L215.12,9.18 L215.12,14.6 L204.06,14.6 L204.06,15.26 L215.5,15.26 Z M217.18,2.88 L217.18,6.18 L215.12,6.18 L215.12,8.52 L211.7,8.52 L211.7,0.38 L215.12,0.38 L215.12,2.88 L217.18,2.88 Z M203.68,5.48 L210.6,5.48 L210.6,8.26 L200.26,8.26 L200.26,0.56 L203.68,0.56 L203.68,5.48 Z M217.9,2.55795385e-13 L221.32,2.55795385e-13 L221.32,12.22 L217.9,12.22 L217.9,2.55795385e-13 Z M221.5,17.46 L217.7,17.46 L217.7,13.72 L221.5,13.72 L221.5,17.46 Z M240.12,2.06 L236.44,2.06 L236.44,16.24 L235.42,16.24 L235.42,2.06 L231.94,2.06 L231.94,1.12 L240.12,1.12 L240.12,2.06 Z M249.32,11.84 L249.32,5.44 C249.32,3.2 248.28,1.88 245.94,1.88 C243.58,1.88 242.56,3.2 242.56,5.44 L242.56,11.84 C242.56,14.1 243.58,15.4 245.94,15.4 C248.28,15.4 249.32,14.1 249.32,11.84 Z M250.36,5.36 L250.36,11.94 C250.36,14.66 248.76,16.34 245.94,16.34 C243.12,16.34 241.52,14.66 241.52,11.94 L241.52,5.36 C241.52,2.62 243.12,0.94 245.94,0.94 C248.76,0.94 250.36,2.62 250.36,5.36 Z M261.24,5.64 C261.24,8.46 259.56,10.14 256.46,10.14 L253.82,10.14 L253.82,16.14 L252.78,16.14 L252.78,1.12 L256.46,1.12 C259.56,1.12 261.24,2.82 261.24,5.64 Z M260.22,5.64 C260.22,3.2 258.8,2.06 256.36,2.06 L253.82,2.06 L253.82,9.2 L256.36,9.2 C258.8,9.2 260.22,8.08 260.22,5.64 Z M267.88,16.14 L267.88,12.66 C267.88,11.28 268.24,10.42 269.5,9.64 L272.96,7.52 C273.98,6.9 274.54,5.94 274.54,4.7 C274.54,2.82 273.52,1.88 271.72,1.88 C269.84,1.88 268.9,2.82 268.9,4.7 L267.88,4.7 C267.88,2.26 269.38,0.94 271.72,0.94 C274.08,0.94 275.58,2.34 275.58,4.7 C275.58,6.38 274.86,7.54 273.56,8.3 L270,10.46 C269.16,10.96 268.88,11.66 268.88,12.62 L268.88,15.2 L275.58,15.2 L275.58,16.14 L267.88,16.14 Z M284.6,12.32 L284.6,4.98 C284.6,3 283.74,1.88 281.78,1.88 C279.8,1.88 278.96,3 278.96,4.98 L278.96,12.32 C278.96,14.28 279.8,15.4 281.78,15.4 C283.74,15.4 284.6,14.28 284.6,12.32 Z M285.62,4.88 L285.62,12.4 C285.62,14.84 284.22,16.34 281.78,16.34 C279.32,16.34 277.92,14.84 277.92,12.4 L277.92,4.88 C277.92,2.44 279.32,0.94 281.78,0.94 C284.22,0.94 285.62,2.44 285.62,4.88 Z"/>
  </g>
</svg>
