<svg xmlns="http://www.w3.org/2000/svg" width="53" height="28" viewBox="0 0 53 28">
  <path fill="#D3182F" fill-rule="evenodd" d="M14,-1.77635684e-15 L39,-3.55271368e-15 C46.7319865,-4.97305656e-15 53,6.2680135 53,14 C53,21.7319865 46.7319865,28 39,28 L14,28 C6.2680135,28 -6.15853211e-15,21.7319865 -7.10542736e-15,14 C-8.05232261e-15,6.2680135 6.2680135,-2.1323708e-15 14,-3.55271368e-15 Z M10.2622689,13.3310559 C9.91195837,13.6813665 9.91195837,14.2478261 10.2659956,14.5981366 L15.3343186,19.6664596 C15.6809025,20.0167702 16.2473621,20.0167702 16.5976727,19.6664596 L17.4399087,18.8204969 C17.7902192,18.473913 17.7902192,17.9074534 17.4399087,17.5571429 L13.8473621,13.9645963 L17.436182,10.368323 C17.7864925,10.0217391 17.7864925,9.4552795 17.436182,9.10496894 L16.5939459,8.26273292 C16.2473621,7.91242236 15.6809025,7.91242236 15.3305919,8.26273292 L10.2622689,13.3310559 Z M42.436646,14.5981366 C42.7869565,14.2478261 42.7869565,13.6813665 42.4329193,13.3310559 L37.3645963,8.26273292 C37.0180124,7.91242236 36.4515528,7.91242236 36.1012422,8.26273292 L35.2627329,9.11242236 C34.9124224,9.45900621 34.9124224,10.0254658 35.2627329,10.3757764 L38.8552795,13.968323 L35.2627329,17.5608696 C34.9124224,17.9074534 34.9124224,18.473913 35.2627329,18.8242236 L36.1049689,19.6664596 C36.4515528,20.0167702 37.0180124,20.0167702 37.368323,19.6664596 L42.436646,14.5981366 Z M26.5,17 C27.8807119,17 29,15.8807119 29,14.5 C29,13.1192881 27.8807119,12 26.5,12 C25.1192881,12 24,13.1192881 24,14.5 C24,15.8807119 25.1192881,17 26.5,17 Z"/>
</svg>
