<svg xmlns="http://www.w3.org/2000/svg" width="53" height="28" viewBox="0 0 53 28">
  <g fill="none" fill-rule="evenodd">
    <path fill="#D3182F" d="M14,0 L39,-1.77635684e-15 C46.7319865,-3.19669972e-15 53,6.2680135 53,14 L53,14 C53,21.7319865 46.7319865,28 39,28 L14,28 C6.2680135,28 -2.60581843e-15,21.7319865 -3.55271368e-15,14 L-3.55271368e-15,14 C-4.49960893e-15,6.2680135 6.2680135,-3.56013962e-16 14,-1.77635684e-15 Z"/>
    <path fill="#FFF" d="M10.2622689 13.3310559L15.3305919 8.26273292C15.6809025 7.91242236 16.2473621 7.91242236 16.5939459 8.26273292L17.436182 9.10496894C17.7864925 9.4552795 17.7864925 10.0217391 17.436182 10.368323L13.8473621 13.9645963 17.4399087 17.5571429C17.7902192 17.9074534 17.7902192 18.473913 17.4399087 18.8204969L16.5976727 19.6664596C16.2473621 20.0167702 15.6809025 20.0167702 15.3343186 19.6664596L10.2659956 14.5981366C9.91195837 14.2478261 9.91195837 13.6813665 10.2622689 13.3310559zM42.436646 14.5981366L37.368323 19.6664596C37.0180124 20.0167702 36.4515528 20.0167702 36.1049689 19.6664596L35.2627329 18.8242236C34.9124224 18.473913 34.9124224 17.9074534 35.2627329 17.5608696L38.8552795 13.968323 35.2627329 10.3757764C34.9124224 10.0254658 34.9124224 9.45900621 35.2627329 9.11242236L36.1012422 8.26273292C36.4515528 7.91242236 37.0180124 7.91242236 37.3645963 8.26273292L42.4329193 13.3310559C42.7869565 13.6813665 42.7869565 14.2478261 42.436646 14.5981366z"/>
    <circle cx="26.5" cy="14.5" r="2.5" fill="#FFF"/>
  </g>
</svg>
