<svg xmlns="http://www.w3.org/2000/svg" width="53" height="28" viewBox="0 0 53 28">
  <g fill="none">
    <path stroke="#979797" stroke-opacity=".05" d="M14,0.5 C6.54415587,0.5 0.5,6.54415587 0.5,14 C0.5,21.4558441 6.54415587,27.5 14,27.5 L39,27.5 C46.4558441,27.5 52.5,21.4558441 52.5,14 C52.5,6.54415587 46.4558441,0.5 39,0.5 L14,0.5 Z"/>
    <path d="M10.2622689,13.3310559 L15.3305919,8.26273292 C15.6809025,7.91242236 16.2473621,7.91242236 16.5939459,8.26273292 L17.436182,9.10496894 C17.7864925,9.4552795 17.7864925,10.0217391 17.436182,10.368323 L13.8473621,13.9645963 L17.4399087,17.5571429 C17.7902192,17.9074534 17.7902192,18.473913 17.4399087,18.8204969 L16.5976727,19.6664596 C16.2473621,20.0167702 15.6809025,20.0167702 15.3343186,19.6664596 L10.2659956,14.5981366 C9.91195837,14.2478261 9.91195837,13.6813665 10.2622689,13.3310559 Z M42.436646,14.5981366 L37.368323,19.6664596 C37.0180124,20.0167702 36.4515528,20.0167702 36.1049689,19.6664596 L35.2627329,18.8242236 C34.9124224,18.473913 34.9124224,17.9074534 35.2627329,17.5608696 L38.8552795,13.968323 L35.2627329,10.3757764 C34.9124224,10.0254658 34.9124224,9.45900621 35.2627329,9.11242236 L36.1012422,8.26273292 C36.4515528,7.91242236 37.0180124,7.91242236 37.3645963,8.26273292 L42.4329193,13.3310559 C42.7869565,13.6813665 42.7869565,14.2478261 42.436646,14.5981366 Z"/>
    <circle cx="26.5" cy="14.5" r="2.5" fill="#D3182F"/>
  </g>
</svg>
