<svg xmlns="http://www.w3.org/2000/svg" xmlns:xlink="http://www.w3.org/1999/xlink" width="768" height="711" viewBox="0 0 768 711">
  <defs>
    <path id="welcome-a" d="M106.48806,224.443736 C-3.37696507,182.784468 -17.3349025,75.278906 21.9795428,0.760582396 L21.070424,0.38589549 C-21.564281,80.1547659 9.05918658,155.392883 42.2024942,188.572394 C97.4611037,243.976756 191.006459,237.902884 220.458942,278.684596 L223.551922,276.584377 C202.385266,247.605303 157.848329,243.888014 106.48806,224.443736"/>
    <path id="welcome-c" d="M20.5108235,25.6193783 C19.7597647,20.2613959 19.2261176,16.3673431 17.6647059,12.5025689 C15.3077647,6.65173021 10.1738824,3.61163636 3.66635294,0.0933255132 C0.84,3.21637537 -0.247058824,6.31990616 1.54164706,10.5994604 C4.98070588,18.8853021 17.9167059,24.004176 20.5108235,25.6193783"/>
    <path id="welcome-e" d="M9.54552273,20.9238095 C13.1303864,23.4346667 16.6823182,25.0986667 17.9948864,25.9207619 C17.2703864,20.6464762 16.6023409,16.6845714 15.1392273,12.8464762 C12.9751364,7.1512381 8.35527273,4.08571429 2.67218182,0.515047619 C0.0799772727,3.50133333 -0.729204545,6.73028571 0.851522727,10.9992381 C2.33815909,15.0651429 5.95595455,18.4179048 9.54552273,20.9238095"/>
    <path id="welcome-g" d="M9.26765714,20.7504762 C12.8228571,23.3059048 16.4182857,25.024381 17.8816,25.8860952 C17.2429714,20.760381 16.4736,16.7638095 15.0354286,12.9653333 C12.9536,7.44838095 8.35245714,4.27390476 2.88137143,0.584380952 C0.130742857,3.3527619 -0.583314286,6.61638095 0.869942857,10.8704762 C2.2176,14.8125714 5.7024,18.2099048 9.26765714,20.7504762"/>
    <path id="welcome-i" d="M7.70887218,20.4998944 C10.7885714,23.1105689 13.9885714,24.9551202 15.4273684,25.8822757 C15.2348872,23.4375132 14.9894737,21.1879413 14.6237594,19.1140411 C14.2580451,17.0401408 13.8057143,15.0931144 13.2234586,13.229044 C11.5777444,7.9393783 7.57413534,4.60649853 2.99308271,0.771002933 C-0.991278195,4.41618768 -1.65052632,12.5800352 7.70887218,20.4998944"/>
    <path id="welcome-k" d="M14.255,26.3863636 C14.175,10.5643636 10.225,7.21145455 3.955,0.81 C-1.54,4.87472727 -2.125,14.9334545 14.255,26.3863636"/>
    <path id="welcome-m" d="M11.8924,26.3421818 C13.4212,11.3792727 9.854,7.42745455 4.472,0.461454545 C0.4212,2.70490909 -4.576,12.3807273 11.8924,26.3421818"/>
    <path id="welcome-o" d="M8.56555556,26.8625455 C11.6903704,12.6016364 8.4837037,7.34890909 5.07,0.814909091 C1.75259259,2.25327273 -4.70407407,11.3350909 8.56555556,26.8625455"/>
    <path id="welcome-q" d="M0.818285714,16.6172727 C1.69142857,20.0438182 3.60685714,23.9809091 5.38057143,26.6121818 C9.60914286,13.8927273 7.73942857,8.73818182 6.40914286,4.158 C5.91542857,2.51345455 5.53142857,1.54145455 5.22514286,0.608727273 C2.272,1.458 0.909714286,5.84181818 0.32,9.08672727 C0.0594285714,10.6870909 0.0731428571,12.3954545 0.297142857,14.0989091 C0.429714286,14.9432727 0.608,15.7827273 0.818285714,16.6172727"/>
    <path id="welcome-s" d="M3.66171429,27.6042372 C8.98285714,16.6267615 8.18285714,9.89377602 5.75085714,0.792706192 C2.02057143,1.61551515 -3.25942857,11.7099763 3.66171429,27.6042372"/>
    <path id="welcome-u" d="M2.80685714,25.7407625 C9.09714286,14.976 7.97257143,7.2903695 6.80228571,0.292785924 C3.29142857,0.771002933 -2.848,10.9843519 2.80685714,25.7407625"/>
    <path id="welcome-w" d="M1.39885714,25.4552381 C7.75771429,16.4815238 8.00914286,8.84990476 7.42857143,0.500190476 C4.10057143,0.683428571 -2.63771429,10.3554286 1.39885714,25.4552381"/>
    <path id="welcome-y" d="M9.755,0.2832 C7.135,0.2256 -1.955,7.9104 0.895,23.4816 C8.115,16.0032 9.61,8.424 9.755,0.2832"/>
    <path id="welcome-A" d="M0.102666667,22.9724 C8.95155556,14.9585185 9.86088889,7.13732593 10.9168889,0.259814815 C8.37955556,0.0226592593 -0.777333333,7.6314 0.102666667,22.9724"/>
    <path id="welcome-C" d="M12.8534545,0.689333333 C10.4945455,0.327555556 1.27636364,7.41644444 0.472727273,21.9266667 C8.21127273,15.9817778 10.8869091,9.48933333 12.8534545,0.689333333"/>
    <path id="welcome-E" d="M15.4683077,0.513882353 C13.3070769,0.108705882 3.32307692,6.01835294 0.802461538,20.6887059 C10.2104615,14.8482353 13.1643077,7.25364706 15.4683077,0.513882353"/>
    <path id="welcome-G" d="M15.836391,0.73625 C13.2908271,0.209 3.83037594,5.75225 0.0144360902,18.89075 C8.16601504,14.74875 12.5978947,8.5405 15.836391,0.73625"/>
    <path id="welcome-I" d="M17.5728,0.4176 C17.1408,0.3264 16.4592,0.4512 15.6384,0.7392 C14.8272,1.0368 13.8672,1.4976 12.864,2.0592 C5.5536,6.2448 3.2112,10.8 0.5376,17.5152 C9.0384,13.8864 13.6992,8.088 17.5728,0.4176"/>
    <path id="welcome-K" d="M4.6272,29.5208074 C11.7216,21.6565988 19.1328,9.37748024 23.4768,0.403539108 C13.1136,7.10036669 0.8496,20.9119731 0.0528,33.7915963 C0.5184,33.5610025 1.176,33.0229504 1.968,32.2783246 C2.7552,31.5336989 3.6672,30.5824996 4.6272,29.5208074"/>
    <path id="welcome-M" d="M1.42363636,14.8541026 C16.74,15.2828205 19.0865455,12.7202564 26.8232727,0.141282051 C12.3758182,1.01820513 -3.09272727,1.08153846 1.42363636,14.8541026"/>
    <path id="welcome-O" d="M27.3879104,0.500452489 C24.9847062,0.577484163 16.3050751,-0.395040724 9.47676416,1.31409955 C2.55814493,3.05694118 -1.08930698,6.87482353 0.892458498,13.6680543 C16.9422503,14.919819 19.636448,12.0407602 27.3879104,0.500452489"/>
    <path id="welcome-Q" d="M27.8400422,0.879272727 C23.2594045,0.742181818 -2.68416337,-3.55490909 0.536832675,11.6574545 C16.6919842,14.0967273 19.7574493,11.3265455 27.8400422,0.879272727"/>
    <path id="welcome-S" d="M27.7618627,2.002 C25.0860784,1.638 16.8233333,-0.3224 10.9481373,0.1664 C4.5445098,0.5876 0.211372549,3.4268 0.759019608,10.5612 C15.9970588,15.0332 19.3117647,12.4124 27.7618627,2.002"/>
    <path id="welcome-U" d="M28.4393333,4.20601212 C20.5368333,2.19408485 1.49833333,-5.44014545 0.604166667,8.3408 C15.312,15.2590061 19.691,12.3394424 28.4393333,4.20601212"/>
    <path id="welcome-W" d="M27.817451,7.28126061 C17.7820588,2.81367273 3.02921569,-5.40547879 0.108431373,6.39883636 C13.4056863,15.6668121 18.1903922,13.8112 27.817451,7.28126061"/>
    <path id="welcome-Y" d="M27.4789565,10.0596364 C26.6608696,9.54909091 25.4824348,8.84945455 24.1676522,7.97018182 C23.5005217,7.54 22.7846957,7.08618182 22.0250435,6.61818182 C21.2556522,6.15963636 20.496,5.64909091 19.6827826,5.16690909 C12.4563478,0.950181818 4.25113043,-3.26181818 0.374956522,4.15527273 C11.6382609,15.1556364 17.5937391,14.0210909 27.4789565,10.0596364"/>
    <path id="welcome-aa" d="M24.9654545,13.6653846 C15.9909091,5.12512821 6.63333333,-4.95461538 0.131515152,2.85974359 C9.46484848,15.2097436 14.0563636,15.8041026 24.9654545,13.6653846"/>
    <path id="welcome-ac" d="M22.2853571,15.9470677 C16.1060786,7.99278195 7.70664286,-4.27308271 0.226714286,2.1606015 C7.16351429,14.4842105 11.4656643,16.0914286 22.2853571,15.9470677"/>
    <path id="welcome-ae" d="M20.4169412,18.25425 C15.3275294,10.241 8.61247059,-2.8975 0.084,1.73375 C5.59341176,14.90075 10.2331765,16.948 20.4169412,18.25425"/>
    <path id="welcome-ag" d="M6.1248,14.0378824 C6.5472,14.6110588 6.9792,15.1397647 7.4448,15.6091765 C7.9152,16.0736471 8.4,16.4788235 8.904,16.8148235 C11.8944,18.8110588 14.1264,19.6757647 17.4912,20.7183529 C13.9392,12.1750588 9.2256,-1.92211765 0.7824,0.780705882 C1.608,4.21976471 2.3904,6.89294118 3.8304,10.0849412 C4.4928,11.5425882 5.2944,12.8865882 6.1248,14.0378824"/>
    <path id="welcome-ai" d="M13.7331765,22.5832203 C10.4225882,9.00523977 7.64070588,-0.515415205 0.199294118,0.0369434698 C1.21717647,13.6249669 4.77976471,18.0689435 13.7331765,22.5832203"/>
    <path id="welcome-ak" d="M10.1933333,23.2416 C8.92711111,13.2 8.58,1.4736 0.664888889,0.1488 C-0.229777778,12.2064 2.32222222,17.616 10.1933333,23.2416"/>
    <path id="welcome-am" d="M7.10857143,24.8344444 C7.49714286,13.0101587 8.01828571,3.22793651 1.85142857,0.29031746 C-0.713142857,12.3557143 1.32571429,18.4622222 7.10857143,24.8344444"/>
    <path id="welcome-ao" d="M4.77925,25.2670476 C6.76375,15.2335238 8.97925,4.95238095 2.7895,0.336761905 C-1.09025,10.3108571 -1.127,17.1104762 4.77925,25.2670476"/>
    <path id="welcome-aq" d="M3.22666667,24.9426984 C6.13866667,16.1495238 10.0906667,6.62809524 5.056,0.467460317 C0.170666667,8.82269841 -1.2,16.4004762 3.22666667,24.9426984"/>
    <path id="welcome-as" d="M117.524588,229.065271 C135.194011,222.25296 151.801391,214.153823 166.872515,202.847448 C218.522357,164.05116 245.59209,80.2749505 202.749791,0.698110945 L201.939675,1.25311544 C246.426905,85.5794183 214.03214,174.22788 149.613089,211.1234 C138.824714,217.316858 127.557184,222.228402 116.467485,226.417949 C105.367906,230.602585 94.4165194,234.050489 83.9986237,237.218435 C44.727751,249.12893 15.9340507,256.368546 0.26027973,277.714117 L3.35255222,279.806435 C22.9781091,252.768384 67.8753371,248.17609 117.524588,229.065271"/>
    <path id="welcome-au" d="M0.0241666667,1.31435294 C10.0485,12.7087059 12.876,15.0211765 28.3185,13.0348235 C30.5708333,-3.30070588 5.60183333,1.11670588 0.0241666667,1.31435294"/>
    <path id="welcome-aw" d="M0.4884,1.64509091 C10.9668,12.272 15.1749333,13.8603636 29.896,11.3123636 C31.3266667,-4.02763636 2.66893333,1.47963636 0.4884,1.64509091"/>
    <path id="welcome-ay" d="M10.0210256,0.419532468 C5.62179487,0.923220779 1.76820513,1.85080519 0.0923076923,2.10514286 C10.8687179,12.5828571 16.2666667,13.5054545 29.7712821,9.84 C29.844359,1.02794805 18.9802564,-0.567896104 10.0210256,0.419532468"/>
    <path id="welcome-aA" d="M0.323018711,3.17777778 C11.809131,12.5106667 18.5587526,12.1782222 30.7501954,7.49955556 C29.4130062,-5.34844444 3.80558836,2.35644444 0.323018711,3.17777778"/>
    <path id="welcome-aC" d="M0.083010395,6.00685714 C12.4703784,14.3588571 19.9645156,12.4508571 30.7599917,6.21771429 C28.0709189,-5.02971429 8.62534719,2.64857143 0.083010395,6.00685714"/>
    <path id="welcome-aE" d="M0.215259875,9.4068 C13.1267277,15.6988 20.9980208,12.2668 30.4465114,4.4564 C25.9500291,-6.2088 4.43744699,6.9472 0.215259875,9.4068"/>
    <path id="welcome-aG" d="M5.63426667,7.91345455 C4.8844,8.42872727 4.17893333,8.93454545 3.52773333,9.42145455 C2.19573333,10.3669091 1.05613333,11.2083636 0.2224,11.8418182 C13.9765333,15.4156364 21.6922667,10.1589091 29.1662667,2.34 C25.116,-3.15309091 11.7072,3.84327273 5.63426667,7.91345455"/>
    <path id="welcome-aI" d="M0.279818182,16.51856 C12.7243636,17.7502667 20.4758182,11.3773067 26.4894545,1.61341333 C20.4414545,-4.01653333 5.98418182,10.5295733 0.279818182,16.51856"/>
    <path id="welcome-aK" d="M0.6768,17.8772727 C15.1632,16.4988409 20.1888,6.70397727 23.2368,0.870340909 C20.1696,-1.16672727 10.248,2.69570455 0.6768,17.8772727"/>
    <path id="welcome-aM" d="M0.16464,21.3644444 C12.20576,18.6853333 17.3842667,9.26933333 20.2477333,0.953333333 C17.75312,-0.200444444 9.04138667,3.26577778 0.16464,21.3644444"/>
    <path id="welcome-aO" d="M0.576,22.7161143 C11.112,18.6712357 15.2352,10.4099643 17.2368,0.357321429 C14.7408,-0.276328571 6.4176,5.30741429 0.576,22.7161143"/>
    <path id="welcome-aQ" d="M0.405176471,25.7114839 C9.98117647,20.2851848 13.0941176,11.5162463 13.7710588,0.727085044 C7.44141176,0.37086217 1.73435294,18.6455836 0.405176471,25.7114839"/>
    <path id="welcome-aS" d="M0.225,26.6318182 C8.42,20.1763636 10.775,10.3189091 9.59,0.0245454545 C4.41,0.751090909 0.525,19.3663636 0.225,26.6318182"/>
    <path id="welcome-aU" d="M1.21396825,27.8734343 C6.78603175,21.7558586 9.44761905,12.4607071 6.4,0.245353535 C4.46984127,0.928383838 -0.579047619,10.4165657 1.21396825,27.8734343"/>
    <path id="welcome-aW" d="M2.9136,0.56 C1.4736,1.45113043 -2.0304,11.010087 1.9776,27.8636522 C5.976,21.6354783 7.5504,11.9255652 2.9136,0.56"/>
    <path id="welcome-aY" d="M4.62,27.9799315 C8.79,18.6330224 6.69,9.1406166 1.72,0.280368906 C-0.735,2.59326482 -0.17,15.477249 4.62,27.9799315"/>
    <path id="welcome-ba" d="M6.8464,26.6269091 C9.3424,17.2161818 6.4912,8.17363636 0.616,0.387818182 C-0.0176,1.31072727 -1.5008,10.53 6.8464,26.6269091"/>
    <path id="welcome-bc" d="M25.6242581,33.2131429 C26.0243988,27.2582857 15.4597067,8.03857143 0.268997067,0.272 C7.02259238,11.1811429 15.3523519,26.0002857 25.6242581,33.2131429"/>
    <path id="welcome-be" d="M8.89554286,21.1189091 C17.2077714,14.7763636 21.4166857,6.87763636 13.1094857,0.397636364 C3.53508571,6.60763636 0.120685714,9.85745455 0.0150857143,19.8376364 C-0.0100571429,21.9485455 0.115657143,24.2263636 0.251428571,26.8723636 C1.44822857,25.9592727 5.18948571,23.9465455 8.89554286,21.1189091"/>
    <path id="welcome-bg" d="M8.76714286,20.2272375 C16.49,13.9811378 20.2591429,6.37358358 12.5411429,0.137243402 C0.874285714,8.52556012 0.145714286,11.106956 0.646,25.8438475 C1.87971429,24.9313314 5.36228571,22.9647859 8.76714286,20.2272375"/>
    <path id="welcome-bi" d="M11.3900752,0.0103695015 C0.582255639,8.86226393 0.149172932,11.2631085 0.832481203,25.458346 C2.32421053,24.3067214 24.9984962,10.5409032 11.3900752,0.0103695015"/>
    <path id="welcome-bk" d="M0.62,26.3225455 C10.535,18.1047273 20.845,8.24727273 9.59,0.765818182 C-0.6,10.3532727 -0.69,12.8225455 0.62,26.3225455"/>
    <path id="welcome-bm" d="M2.08023529,25.7554018 C11.004,17.1474956 19.4929412,6.5144868 8.25176471,0.322064516 C0.138352941,10.5646921 -0.355764706,11.6772786 2.08023529,25.7554018"/>
    <path id="welcome-bo" d="M2.74348052,25.8139589 C10.5880519,16.6692786 16.9165714,5.05543695 5.64592208,0.483096774 C-0.767376623,11.5748035 -1.11646753,12.3604457 2.74348052,25.8139589"/>
    <path id="welcome-bq" d="M4.43911111,25.1899589 C10.4231111,15.1474018 15.0871111,3.23101466 3.73022222,0.23483871 C-0.640444444,12.4488915 -0.948444444,12.5904047 4.43911111,25.1899589"/>
    <path id="welcome-bs" d="M1.70407407,0.723047619 C-1.5362963,13.6388571 -0.0533333333,15.8179048 5.68592593,25.5295238 C9.7062963,15.1889524 12.3977778,2.06514286 1.70407407,0.723047619"/>
    <path id="welcome-bu" d="M7.415,24.908254 C10.195,14.7766667 11.755,1.4368254 1.06,0.806984127 C-0.98,14.2747619 0.465,16.2134921 7.415,24.908254"/>
    <path id="welcome-bw" d="M8.15890909,22.7821053 C9.82290909,13.1124211 9.82763636,0.0823157895 0.193454545,0.154947368 C-0.383272727,13.1463158 1.33272727,15.2816842 8.15890909,22.7821053"/>
    <path id="welcome-by" d="M11.2028571,21.7017778 C11.676,12.1293333 10.4005714,-0.572 0.361714286,0.156444444 C1.11257143,12.2368889 3.05142857,14.8182222 11.2028571,21.7017778"/>
    <path id="welcome-bA" d="M0.352625,0.158518519 C2.682875,11.9548148 4.61825,14.1744444 12.67175,19.9233333 C11.916125,10.8666667 9.439625,-1.08851852 0.352625,0.158518519"/>
    <path id="welcome-bC" d="M0.238461538,0.513 C3.70230769,11.31925 6.1674359,13.78925 14.3715385,18.47275 C12.8466667,10.2505 8.72025641,-1.04025 0.238461538,0.513"/>
    <path id="welcome-bE" d="M0.0769924812,0.199142857 C4.69172932,10.7682857 7.46345865,13.1385714 15.5909774,16.9757143 C13.1464662,9.078 8.14195489,-1.54457143 0.0769924812,0.199142857"/>
    <path id="welcome-bG" d="M0.0630857143,0.280615385 C5.04137143,9.28 9.32571429,12.8147692 17.6228571,15.7144615 C13.952,8.22646154 8.36022857,-1.45723077 0.0630857143,0.280615385"/>
    <path id="welcome-bI" d="M0.296795455,0.177882353 C5.55647727,8.13140271 10.0022727,11.5833846 17.7271364,13.7932308 C13.6388864,6.82667873 7.79113636,-1.29534842 0.296795455,0.177882353"/>
  </defs>
  <g fill="none" fill-rule="evenodd" transform="translate(-81 -218)">
    <g opacity=".05" transform="translate(268 349)">
      <g transform="translate(17 38)">
        <mask id="welcome-b" fill="#fff">
          <use xlink:href="#welcome-a"/>
        </mask>
        <path fill="#FFF" d="M106.48806,224.443736 C-3.37696507,182.784468 -17.3349025,75.278906 21.9795428,0.760582396 L21.070424,0.38589549 C-21.564281,80.1547659 9.05918658,155.392883 42.2024942,188.572394 C97.4611037,243.976756 191.006459,237.902884 220.458942,278.684596 L223.551922,276.584377 C202.385266,247.605303 157.848329,243.888014 106.48806,224.443736" mask="url(#welcome-b)"/>
      </g>
      <g transform="translate(150 249)">
        <mask id="welcome-d" fill="#fff">
          <use xlink:href="#welcome-c"/>
        </mask>
        <path fill="#FFF" d="M20.5108235,25.6193783 C19.7597647,20.2613959 19.2261176,16.3673431 17.6647059,12.5025689 C15.3077647,6.65173021 10.1738824,3.61163636 3.66635294,0.0933255132 C0.84,3.21637537 -0.247058824,6.31990616 1.54164706,10.5994604 C4.98070588,18.8853021 17.9167059,24.004176 20.5108235,25.6193783" mask="url(#welcome-d)"/>
      </g>
      <g transform="translate(133 244)">
        <mask id="welcome-f" fill="#fff">
          <use xlink:href="#welcome-e"/>
        </mask>
        <path fill="#FFF" d="M9.54552273,20.9238095 C13.1303864,23.4346667 16.6823182,25.0986667 17.9948864,25.9207619 C17.2703864,20.6464762 16.6023409,16.6845714 15.1392273,12.8464762 C12.9751364,7.1512381 8.35527273,4.08571429 2.67218182,0.515047619 C0.0799772727,3.50133333 -0.729204545,6.73028571 0.851522727,10.9992381 C2.33815909,15.0651429 5.95595455,18.4179048 9.54552273,20.9238095" mask="url(#welcome-f)"/>
      </g>
      <g transform="translate(116 237)">
        <mask id="welcome-h" fill="#fff">
          <use xlink:href="#welcome-g"/>
        </mask>
        <path fill="#FFF" d="M9.26765714,20.7504762 C12.8228571,23.3059048 16.4182857,25.024381 17.8816,25.8860952 C17.2429714,20.760381 16.4736,16.7638095 15.0354286,12.9653333 C12.9536,7.44838095 8.35245714,4.27390476 2.88137143,0.584380952 C0.130742857,3.3527619 -0.583314286,6.61638095 0.869942857,10.8704762 C2.2176,14.8125714 5.7024,18.2099048 9.26765714,20.7504762" mask="url(#welcome-h)"/>
      </g>
      <g transform="translate(99 229)">
        <mask id="welcome-j" fill="#fff">
          <use xlink:href="#welcome-i"/>
        </mask>
        <path fill="#FFF" d="M7.70887218,20.4998944 C10.7885714,23.1105689 13.9885714,24.9551202 15.4273684,25.8822757 C15.2348872,23.4375132 14.9894737,21.1879413 14.6237594,19.1140411 C14.2580451,17.0401408 13.8057143,15.0931144 13.2234586,13.229044 C11.5777444,7.9393783 7.57413534,4.60649853 2.99308271,0.771002933 C-0.991278195,4.41618768 -1.65052632,12.5800352 7.70887218,20.4998944" mask="url(#welcome-j)"/>
      </g>
      <g transform="translate(84 221)">
        <mask id="welcome-l" fill="#fff">
          <use xlink:href="#welcome-k"/>
        </mask>
        <path fill="#FFF" d="M14.255,26.3863636 C14.175,10.5643636 10.225,7.21145455 3.955,0.81 C-1.54,4.87472727 -2.125,14.9334545 14.255,26.3863636" mask="url(#welcome-l)"/>
      </g>
      <g transform="translate(71 211)">
        <mask id="welcome-n" fill="#fff">
          <use xlink:href="#welcome-m"/>
        </mask>
        <path fill="#FFF" d="M11.8924,26.3421818 C13.4212,11.3792727 9.854,7.42745455 4.472,0.461454545 C0.4212,2.70490909 -4.576,12.3807273 11.8924,26.3421818" mask="url(#welcome-n)"/>
      </g>
      <g transform="translate(58 199)">
        <mask id="welcome-p" fill="#fff">
          <use xlink:href="#welcome-o"/>
        </mask>
        <path fill="#FFF" d="M8.56555556,26.8625455 C11.6903704,12.6016364 8.4837037,7.34890909 5.07,0.814909091 C1.75259259,2.25327273 -4.70407407,11.3350909 8.56555556,26.8625455" mask="url(#welcome-p)"/>
      </g>
      <g transform="translate(48 185)">
        <mask id="welcome-r" fill="#fff">
          <use xlink:href="#welcome-q"/>
        </mask>
        <path fill="#FFF" d="M0.818285714,16.6172727 C1.69142857,20.0438182 3.60685714,23.9809091 5.38057143,26.6121818 C9.60914286,13.8927273 7.73942857,8.73818182 6.40914286,4.158 C5.91542857,2.51345455 5.53142857,1.54145455 5.22514286,0.608727273 C2.272,1.458 0.909714286,5.84181818 0.32,9.08672727 C0.0594285714,10.6870909 0.0731428571,12.3954545 0.297142857,14.0989091 C0.429714286,14.9432727 0.608,15.7827273 0.818285714,16.6172727" mask="url(#welcome-r)"/>
      </g>
      <g transform="translate(39 169)">
        <mask id="welcome-t" fill="#fff">
          <use xlink:href="#welcome-s"/>
        </mask>
        <path fill="#FFF" d="M3.66171429,27.6042372 C8.98285714,16.6267615 8.18285714,9.89377602 5.75085714,0.792706192 C2.02057143,1.61551515 -3.25942857,11.7099763 3.66171429,27.6042372" mask="url(#welcome-t)"/>
      </g>
      <g transform="translate(32 153)">
        <mask id="welcome-v" fill="#fff">
          <use xlink:href="#welcome-u"/>
        </mask>
        <path fill="#FFF" d="M2.80685714,25.7407625 C9.09714286,14.976 7.97257143,7.2903695 6.80228571,0.292785924 C3.29142857,0.771002933 -2.848,10.9843519 2.80685714,25.7407625" mask="url(#welcome-v)"/>
      </g>
      <g transform="translate(27 137)">
        <mask id="welcome-x" fill="#fff">
          <use xlink:href="#welcome-w"/>
        </mask>
        <path fill="#FFF" d="M1.39885714,25.4552381 C7.75771429,16.4815238 8.00914286,8.84990476 7.42857143,0.500190476 C4.10057143,0.683428571 -2.63771429,10.3554286 1.39885714,25.4552381" mask="url(#welcome-x)"/>
      </g>
      <g transform="translate(23 119)">
        <mask id="welcome-z" fill="#fff">
          <use xlink:href="#welcome-y"/>
        </mask>
        <path fill="#FFF" d="M9.755,0.2832 C7.135,0.2256 -1.955,7.9104 0.895,23.4816 C8.115,16.0032 9.61,8.424 9.755,0.2832" mask="url(#welcome-z)"/>
      </g>
      <g transform="translate(22 102)">
        <mask id="welcome-B" fill="#fff">
          <use xlink:href="#welcome-A"/>
        </mask>
        <path fill="#FFF" d="M0.102666667,22.9724 C8.95155556,14.9585185 9.86088889,7.13732593 10.9168889,0.259814815 C8.37955556,0.0226592593 -0.777333333,7.6314 0.102666667,22.9724" mask="url(#welcome-B)"/>
      </g>
      <g transform="translate(22 84)">
        <mask id="welcome-D" fill="#fff">
          <use xlink:href="#welcome-C"/>
        </mask>
        <path fill="#FFF" d="M12.8534545,0.689333333 C10.4945455,0.327555556 1.27636364,7.41644444 0.472727273,21.9266667 C8.21127273,15.9817778 10.8869091,9.48933333 12.8534545,0.689333333" mask="url(#welcome-D)"/>
      </g>
      <g transform="translate(24 66)">
        <mask id="welcome-F" fill="#fff">
          <use xlink:href="#welcome-E"/>
        </mask>
        <path fill="#FFF" d="M15.4683077,0.513882353 C13.3070769,0.108705882 3.32307692,6.01835294 0.802461538,20.6887059 C10.2104615,14.8482353 13.1643077,7.25364706 15.4683077,0.513882353" mask="url(#welcome-F)"/>
      </g>
      <g transform="translate(30 48)">
        <mask id="welcome-H" fill="#fff">
          <use xlink:href="#welcome-G"/>
        </mask>
        <path fill="#FFF" d="M15.836391,0.73625 C13.2908271,0.209 3.83037594,5.75225 0.0144360902,18.89075 C8.16601504,14.74875 12.5978947,8.5405 15.836391,0.73625" mask="url(#welcome-H)"/>
      </g>
      <g transform="translate(37 33)">
        <mask id="welcome-J" fill="#fff">
          <use xlink:href="#welcome-I"/>
        </mask>
        <path fill="#FFF" d="M17.5728,0.4176 C17.1408,0.3264 16.4592,0.4512 15.6384,0.7392 C14.8272,1.0368 13.8672,1.4976 12.864,2.0592 C5.5536,6.2448 3.2112,10.8 0.5376,17.5152 C9.0384,13.8864 13.6992,8.088 17.5728,0.4176" mask="url(#welcome-J)"/>
      </g>
      <g transform="translate(40)">
        <mask id="welcome-L" fill="#fff">
          <use xlink:href="#welcome-K"/>
        </mask>
        <path fill="#FFF" d="M4.6272,29.5208074 C11.7216,21.6565988 19.1328,9.37748024 23.4768,0.403539108 C13.1136,7.10036669 0.8496,20.9119731 0.0528,33.7915963 C0.5184,33.5610025 1.176,33.0229504 1.968,32.2783246 C2.7552,31.5336989 3.6672,30.5824996 4.6272,29.5208074" mask="url(#welcome-L)"/>
      </g>
      <g transform="translate(144 283)">
        <mask id="welcome-N" fill="#fff">
          <use xlink:href="#welcome-M"/>
        </mask>
        <path fill="#FFF" d="M1.42363636,14.8541026 C16.74,15.2828205 19.0865455,12.7202564 26.8232727,0.141282051 C12.3758182,1.01820513 -3.09272727,1.08153846 1.42363636,14.8541026" mask="url(#welcome-N)"/>
      </g>
      <g transform="translate(124 276)">
        <mask id="welcome-P" fill="#fff">
          <use xlink:href="#welcome-O"/>
        </mask>
        <path fill="#FFF" d="M27.3879104,0.500452489 C24.9847062,0.577484163 16.3050751,-0.395040724 9.47676416,1.31409955 C2.55814493,3.05694118 -1.08930698,6.87482353 0.892458498,13.6680543 C16.9422503,14.919819 19.636448,12.0407602 27.3879104,0.500452489" mask="url(#welcome-P)"/>
      </g>
      <g transform="translate(104 269)">
        <mask id="welcome-R" fill="#fff">
          <use xlink:href="#welcome-Q"/>
        </mask>
        <path fill="#FFF" d="M27.8400422,0.879272727 C23.2594045,0.742181818 -2.68416337,-3.55490909 0.536832675,11.6574545 C16.6919842,14.0967273 19.7574493,11.3265455 27.8400422,0.879272727" mask="url(#welcome-R)"/>
      </g>
      <g transform="translate(83 261)">
        <mask id="welcome-T" fill="#fff">
          <use xlink:href="#welcome-S"/>
        </mask>
        <path fill="#FFF" d="M27.7618627,2.002 C25.0860784,1.638 16.8233333,-0.3224 10.9481373,0.1664 C4.5445098,0.5876 0.211372549,3.4268 0.759019608,10.5612 C15.9970588,15.0332 19.3117647,12.4124 27.7618627,2.002" mask="url(#welcome-T)"/>
      </g>
      <g transform="translate(63 249)">
        <mask id="welcome-V" fill="#fff">
          <use xlink:href="#welcome-U"/>
        </mask>
        <path fill="#FFF" d="M28.4393333,4.20601212 C20.5368333,2.19408485 1.49833333,-5.44014545 0.604166667,8.3408 C15.312,15.2590061 19.691,12.3394424 28.4393333,4.20601212" mask="url(#welcome-V)"/>
      </g>
      <g transform="translate(45 234)">
        <mask id="welcome-X" fill="#fff">
          <use xlink:href="#welcome-W"/>
        </mask>
        <path fill="#FFF" d="M27.817451,7.28126061 C17.7820588,2.81367273 3.02921569,-5.40547879 0.108431373,6.39883636 C13.4056863,15.6668121 18.1903922,13.8112 27.817451,7.28126061" mask="url(#welcome-X)"/>
      </g>
      <g transform="translate(29 217)">
        <mask id="welcome-Z" fill="#fff">
          <use xlink:href="#welcome-Y"/>
        </mask>
        <path fill="#FFF" d="M27.4789565,10.0596364 C26.6608696,9.54909091 25.4824348,8.84945455 24.1676522,7.97018182 C23.5005217,7.54 22.7846957,7.08618182 22.0250435,6.61818182 C21.2556522,6.15963636 20.496,5.64909091 19.6827826,5.16690909 C12.4563478,0.950181818 4.25113043,-3.26181818 0.374956522,4.15527273 C11.6382609,15.1556364 17.5937391,14.0210909 27.4789565,10.0596364" mask="url(#welcome-Z)"/>
      </g>
      <g transform="translate(18 198)">
        <mask id="welcome-ab" fill="#fff">
          <use xlink:href="#welcome-aa"/>
        </mask>
        <path fill="#FFF" d="M24.9654545,13.6653846 C15.9909091,5.12512821 6.63333333,-4.95461538 0.131515152,2.85974359 C9.46484848,15.2097436 14.0563636,15.8041026 24.9654545,13.6653846" mask="url(#welcome-ab)"/>
      </g>
      <g transform="translate(9 177)">
        <mask id="welcome-ad" fill="#fff">
          <use xlink:href="#welcome-ac"/>
        </mask>
        <path fill="#FFF" d="M22.2853571,15.9470677 C16.1060786,7.99278195 7.70664286,-4.27308271 0.226714286,2.1606015 C7.16351429,14.4842105 11.4656643,16.0914286 22.2853571,15.9470677" mask="url(#welcome-ad)"/>
      </g>
      <g transform="translate(3 155)">
        <mask id="welcome-af" fill="#fff">
          <use xlink:href="#welcome-ae"/>
        </mask>
        <path fill="#FFF" d="M20.4169412,18.25425 C15.3275294,10.241 8.61247059,-2.8975 0.084,1.73375 C5.59341176,14.90075 10.2331765,16.948 20.4169412,18.25425" mask="url(#welcome-af)"/>
      </g>
      <g transform="translate(0 133)">
        <mask id="welcome-ah" fill="#fff">
          <use xlink:href="#welcome-ag"/>
        </mask>
        <path fill="#FFF" d="M6.1248,14.0378824 C6.5472,14.6110588 6.9792,15.1397647 7.4448,15.6091765 C7.9152,16.0736471 8.4,16.4788235 8.904,16.8148235 C11.8944,18.8110588 14.1264,19.6757647 17.4912,20.7183529 C13.9392,12.1750588 9.2256,-1.92211765 0.7824,0.780705882 C1.608,4.21976471 2.3904,6.89294118 3.8304,10.0849412 C4.4928,11.5425882 5.2944,12.8865882 6.1248,14.0378824" mask="url(#welcome-ah)"/>
      </g>
      <g transform="translate(1 111)">
        <mask id="welcome-aj" fill="#fff">
          <use xlink:href="#welcome-ai"/>
        </mask>
        <path fill="#FFF" d="M13.7331765,22.5832203 C10.4225882,9.00523977 7.64070588,-0.515415205 0.199294118,0.0369434698 C1.21717647,13.6249669 4.77976471,18.0689435 13.7331765,22.5832203" mask="url(#welcome-aj)"/>
      </g>
      <g transform="translate(3 88)">
        <mask id="welcome-al" fill="#fff">
          <use xlink:href="#welcome-ak"/>
        </mask>
        <path fill="#FFF" d="M10.1933333,23.2416 C8.92711111,13.2 8.58,1.4736 0.664888889,0.1488 C-0.229777778,12.2064 2.32222222,17.616 10.1933333,23.2416" mask="url(#welcome-al)"/>
      </g>
      <g transform="translate(8 64)">
        <mask id="welcome-an" fill="#fff">
          <use xlink:href="#welcome-am"/>
        </mask>
        <path fill="#FFF" d="M7.10857143,24.8344444 C7.49714286,13.0101587 8.01828571,3.22793651 1.85142857,0.29031746 C-0.713142857,12.3557143 1.32571429,18.4622222 7.10857143,24.8344444" mask="url(#welcome-an)"/>
      </g>
      <g transform="translate(17 44)">
        <mask id="welcome-ap" fill="#fff">
          <use xlink:href="#welcome-ao"/>
        </mask>
        <path fill="#FFF" d="M4.77925,25.2670476 C6.76375,15.2335238 8.97925,4.95238095 2.7895,0.336761905 C-1.09025,10.3108571 -1.127,17.1104762 4.77925,25.2670476" mask="url(#welcome-ap)"/>
      </g>
      <g transform="translate(26 24)">
        <mask id="welcome-ar" fill="#fff">
          <use xlink:href="#welcome-aq"/>
        </mask>
        <path fill="#FFF" d="M3.22666667,24.9426984 C6.13866667,16.1495238 10.0906667,6.62809524 5.056,0.467460317 C0.170666667,8.82269841 -1.2,16.4004762 3.22666667,24.9426984" mask="url(#welcome-ar)"/>
      </g>
      <g transform="translate(157 37)">
        <mask id="welcome-at" fill="#fff">
          <use xlink:href="#welcome-as"/>
        </mask>
        <path fill="#FFF" d="M117.524588,229.065271 C135.194011,222.25296 151.801391,214.153823 166.872515,202.847448 C218.522357,164.05116 245.59209,80.2749505 202.749791,0.698110945 L201.939675,1.25311544 C246.426905,85.5794183 214.03214,174.22788 149.613089,211.1234 C138.824714,217.316858 127.557184,222.228402 116.467485,226.417949 C105.367906,230.602585 94.4165194,234.050489 83.9986237,237.218435 C44.727751,249.12893 15.9340507,256.368546 0.26027973,277.714117 L3.35255222,279.806435 C22.9781091,252.768384 67.8753371,248.17609 117.524588,229.065271" mask="url(#welcome-at)"/>
      </g>
      <g transform="translate(228 283)">
        <mask id="welcome-av" fill="#fff">
          <use xlink:href="#welcome-au"/>
        </mask>
        <path fill="#FFF" d="M0.0241666667,1.31435294 C10.0485,12.7087059 12.876,15.0211765 28.3185,13.0348235 C30.5708333,-3.30070588 5.60183333,1.11670588 0.0241666667,1.31435294" mask="url(#welcome-av)"/>
      </g>
      <g transform="translate(246 277)">
        <mask id="welcome-ax" fill="#fff">
          <use xlink:href="#welcome-aw"/>
        </mask>
        <path fill="#FFF" d="M0.4884,1.64509091 C10.9668,12.272 15.1749333,13.8603636 29.896,11.3123636 C31.3266667,-4.02763636 2.66893333,1.47963636 0.4884,1.64509091" mask="url(#welcome-ax)"/>
      </g>
      <g transform="translate(266 270)">
        <mask id="welcome-az" fill="#fff">
          <use xlink:href="#welcome-ay"/>
        </mask>
        <path fill="#FFF" d="M10.0210256,0.419532468 C5.62179487,0.923220779 1.76820513,1.85080519 0.0923076923,2.10514286 C10.8687179,12.5828571 16.2666667,13.5054545 29.7712821,9.84 C29.844359,1.02794805 18.9802564,-0.567896104 10.0210256,0.419532468" mask="url(#welcome-az)"/>
      </g>
      <g transform="translate(284 262)">
        <mask id="welcome-aB" fill="#fff">
          <use xlink:href="#welcome-aA"/>
        </mask>
        <path fill="#FFF" d="M0.323018711,3.17777778 C11.809131,12.5106667 18.5587526,12.1782222 30.7501954,7.49955556 C29.4130062,-5.34844444 3.80558836,2.35644444 0.323018711,3.17777778" mask="url(#welcome-aB)"/>
      </g>
      <g transform="translate(302 251)">
        <mask id="welcome-aD" fill="#fff">
          <use xlink:href="#welcome-aC"/>
        </mask>
        <path fill="#FFF" d="M0.083010395,6.00685714 C12.4703784,14.3588571 19.9645156,12.4508571 30.7599917,6.21771429 C28.0709189,-5.02971429 8.62534719,2.64857143 0.083010395,6.00685714" mask="url(#welcome-aD)"/>
      </g>
      <g transform="translate(319 237)">
        <mask id="welcome-aF" fill="#fff">
          <use xlink:href="#welcome-aE"/>
        </mask>
        <path fill="#FFF" d="M0.215259875,9.4068 C13.1267277,15.6988 20.9980208,12.2668 30.4465114,4.4564 C25.9500291,-6.2088 4.43744699,6.9472 0.215259875,9.4068" mask="url(#welcome-aF)"/>
      </g>
      <g transform="translate(337 221)">
        <mask id="welcome-aH" fill="#fff">
          <use xlink:href="#welcome-aG"/>
        </mask>
        <path fill="#FFF" d="M5.63426667,7.91345455 C4.8844,8.42872727 4.17893333,8.93454545 3.52773333,9.42145455 C2.19573333,10.3669091 1.05613333,11.2083636 0.2224,11.8418182 C13.9765333,15.4156364 21.6922667,10.1589091 29.1662667,2.34 C25.116,-3.15309091 11.7072,3.84327273 5.63426667,7.91345455" mask="url(#welcome-aH)"/>
      </g>
      <g transform="translate(350 202)">
        <mask id="welcome-aJ" fill="#fff">
          <use xlink:href="#welcome-aI"/>
        </mask>
        <path fill="#FFF" d="M0.279818182,16.51856 C12.7243636,17.7502667 20.4758182,11.3773067 26.4894545,1.61341333 C20.4414545,-4.01653333 5.98418182,10.5295733 0.279818182,16.51856" mask="url(#welcome-aJ)"/>
      </g>
      <g transform="translate(362 183)">
        <mask id="welcome-aL" fill="#fff">
          <use xlink:href="#welcome-aK"/>
        </mask>
        <path fill="#FFF" d="M0.6768,17.8772727 C15.1632,16.4988409 20.1888,6.70397727 23.2368,0.870340909 C20.1696,-1.16672727 10.248,2.69570455 0.6768,17.8772727" mask="url(#welcome-aL)"/>
      </g>
      <g transform="translate(371 162)">
        <mask id="welcome-aN" fill="#fff">
          <use xlink:href="#welcome-aM"/>
        </mask>
        <path fill="#FFF" d="M0.16464,21.3644444 C12.20576,18.6853333 17.3842667,9.26933333 20.2477333,0.953333333 C17.75312,-0.200444444 9.04138667,3.26577778 0.16464,21.3644444" mask="url(#welcome-aN)"/>
      </g>
      <g transform="translate(378 142)">
        <mask id="welcome-aP" fill="#fff">
          <use xlink:href="#welcome-aO"/>
        </mask>
        <path fill="#FFF" d="M0.576,22.7161143 C11.112,18.6712357 15.2352,10.4099643 17.2368,0.357321429 C14.7408,-0.276328571 6.4176,5.30741429 0.576,22.7161143" mask="url(#welcome-aP)"/>
      </g>
      <g transform="translate(382 119)">
        <mask id="welcome-aR" fill="#fff">
          <use xlink:href="#welcome-aQ"/>
        </mask>
        <path fill="#FFF" d="M0.405176471,25.7114839 C9.98117647,20.2851848 13.0941176,11.5162463 13.7710588,0.727085044 C7.44141176,0.37086217 1.73435294,18.6455836 0.405176471,25.7114839" mask="url(#welcome-aR)"/>
      </g>
      <g transform="translate(384 98)">
        <mask id="welcome-aT" fill="#fff">
          <use xlink:href="#welcome-aS"/>
        </mask>
        <path fill="#FFF" d="M0.225,26.6318182 C8.42,20.1763636 10.775,10.3189091 9.59,0.0245454545 C4.41,0.751090909 0.525,19.3663636 0.225,26.6318182" mask="url(#welcome-aT)"/>
      </g>
      <g transform="translate(383 77)">
        <mask id="welcome-aV" fill="#fff">
          <use xlink:href="#welcome-aU"/>
        </mask>
        <path fill="#FFF" d="M1.21396825,27.8734343 C6.78603175,21.7558586 9.44761905,12.4607071 6.4,0.245353535 C4.46984127,0.928383838 -0.579047619,10.4165657 1.21396825,27.8734343" mask="url(#welcome-aV)"/>
      </g>
      <g transform="translate(380 56)">
        <mask id="welcome-aX" fill="#fff">
          <use xlink:href="#welcome-aW"/>
        </mask>
        <path fill="#FFF" d="M2.9136,0.56 C1.4736,1.45113043 -2.0304,11.010087 1.9776,27.8636522 C5.976,21.6354783 7.5504,11.9255652 2.9136,0.56" mask="url(#welcome-aX)"/>
      </g>
      <g transform="translate(372 38)">
        <mask id="welcome-aZ" fill="#fff">
          <use xlink:href="#welcome-aY"/>
        </mask>
        <path fill="#FFF" d="M4.62,27.9799315 C8.79,18.6330224 6.69,9.1406166 1.72,0.280368906 C-0.735,2.59326482 -0.17,15.477249 4.62,27.9799315" mask="url(#welcome-aZ)"/>
      </g>
      <g transform="translate(363 19)">
        <mask id="welcome-bb" fill="#fff">
          <use xlink:href="#welcome-ba"/>
        </mask>
        <path fill="#FFF" d="M6.8464,26.6269091 C9.3424,17.2161818 6.4912,8.17363636 0.616,0.387818182 C-0.0176,1.31072727 -1.5008,10.53 6.8464,26.6269091" mask="url(#welcome-bb)"/>
      </g>
      <g transform="translate(331)">
        <mask id="welcome-bd" fill="#fff">
          <use xlink:href="#welcome-bc"/>
        </mask>
        <path fill="#FFF" d="M25.6242581,33.2131429 C26.0243988,27.2582857 15.4597067,8.03857143 0.268997067,0.272 C7.02259238,11.1811429 15.3523519,26.0002857 25.6242581,33.2131429" mask="url(#welcome-bd)"/>
      </g>
      <g transform="translate(223 251)">
        <mask id="welcome-bf" fill="#fff">
          <use xlink:href="#welcome-be"/>
        </mask>
        <path fill="#FFF" d="M8.89554286,21.1189091 C17.2077714,14.7763636 21.4166857,6.87763636 13.1094857,0.397636364 C3.53508571,6.60763636 0.120685714,9.85745455 0.0150857143,19.8376364 C-0.0100571429,21.9485455 0.115657143,24.2263636 0.251428571,26.8723636 C1.44822857,25.9592727 5.18948571,23.9465455 8.89554286,21.1189091" mask="url(#welcome-bf)"/>
      </g>
      <g transform="translate(243 246)">
        <mask id="welcome-bh" fill="#fff">
          <use xlink:href="#welcome-bg"/>
        </mask>
        <path fill="#FFF" d="M8.76714286,20.2272375 C16.49,13.9811378 20.2591429,6.37358358 12.5411429,0.137243402 C0.874285714,8.52556012 0.145714286,11.106956 0.646,25.8438475 C1.87971429,24.9313314 5.36228571,22.9647859 8.76714286,20.2272375" mask="url(#welcome-bh)"/>
      </g>
      <g transform="translate(262 239)">
        <mask id="welcome-bj" fill="#fff">
          <use xlink:href="#welcome-bi"/>
        </mask>
        <path fill="#FFF" d="M11.3900752,0.0103695015 C0.582255639,8.86226393 0.149172932,11.2631085 0.832481203,25.458346 C2.32421053,24.3067214 24.9984962,10.5409032 11.3900752,0.0103695015" mask="url(#welcome-bj)"/>
      </g>
      <g transform="translate(282 230)">
        <mask id="welcome-bl" fill="#fff">
          <use xlink:href="#welcome-bk"/>
        </mask>
        <path fill="#FFF" d="M0.62,26.3225455 C10.535,18.1047273 20.845,8.24727273 9.59,0.765818182 C-0.6,10.3532727 -0.69,12.8225455 0.62,26.3225455" mask="url(#welcome-bl)"/>
      </g>
      <g transform="translate(299 222)">
        <mask id="welcome-bn" fill="#fff">
          <use xlink:href="#welcome-bm"/>
        </mask>
        <path fill="#FFF" d="M2.08023529,25.7554018 C11.004,17.1474956 19.4929412,6.5144868 8.25176471,0.322064516 C0.138352941,10.5646921 -0.355764706,11.6772786 2.08023529,25.7554018" mask="url(#welcome-bn)"/>
      </g>
      <g transform="translate(316 211)">
        <mask id="welcome-bp" fill="#fff">
          <use xlink:href="#welcome-bo"/>
        </mask>
        <path fill="#FFF" d="M2.74348052,25.8139589 C10.5880519,16.6692786 16.9165714,5.05543695 5.64592208,0.483096774 C-0.767376623,11.5748035 -1.11646753,12.3604457 2.74348052,25.8139589" mask="url(#welcome-bp)"/>
      </g>
      <g transform="translate(330 199)">
        <mask id="welcome-br" fill="#fff">
          <use xlink:href="#welcome-bq"/>
        </mask>
        <path fill="#FFF" d="M4.43911111,25.1899589 C10.4231111,15.1474018 15.0871111,3.23101466 3.73022222,0.23483871 C-0.640444444,12.4488915 -0.948444444,12.5904047 4.43911111,25.1899589" mask="url(#welcome-br)"/>
      </g>
      <g transform="translate(343 183)">
        <mask id="welcome-bt" fill="#fff">
          <use xlink:href="#welcome-bs"/>
        </mask>
        <path fill="#FFF" d="M1.70407407,0.723047619 C-1.5362963,13.6388571 -0.0533333333,15.8179048 5.68592593,25.5295238 C9.7062963,15.1889524 12.3977778,2.06514286 1.70407407,0.723047619" mask="url(#welcome-bt)"/>
      </g>
      <g transform="translate(352 166)">
        <mask id="welcome-bv" fill="#fff">
          <use xlink:href="#welcome-bu"/>
        </mask>
        <path fill="#FFF" d="M7.415,24.908254 C10.195,14.7766667 11.755,1.4368254 1.06,0.806984127 C-0.98,14.2747619 0.465,16.2134921 7.415,24.908254" mask="url(#welcome-bv)"/>
      </g>
      <g transform="translate(358 148)">
        <mask id="welcome-bx" fill="#fff">
          <use xlink:href="#welcome-bw"/>
        </mask>
        <path fill="#FFF" d="M8.15890909,22.7821053 C9.82290909,13.1124211 9.82763636,0.0823157895 0.193454545,0.154947368 C-0.383272727,13.1463158 1.33272727,15.2816842 8.15890909,22.7821053" mask="url(#welcome-bx)"/>
      </g>
      <g transform="translate(363 130)">
        <mask id="welcome-bz" fill="#fff">
          <use xlink:href="#welcome-by"/>
        </mask>
        <path fill="#FFF" d="M11.2028571,21.7017778 C11.676,12.1293333 10.4005714,-0.572 0.361714286,0.156444444 C1.11257143,12.2368889 3.05142857,14.8182222 11.2028571,21.7017778" mask="url(#welcome-bz)"/>
      </g>
      <g transform="translate(363 112)">
        <mask id="welcome-bB" fill="#fff">
          <use xlink:href="#welcome-bA"/>
        </mask>
        <path fill="#FFF" d="M0.352625,0.158518519 C2.682875,11.9548148 4.61825,14.1744444 12.67175,19.9233333 C11.916125,10.8666667 9.439625,-1.08851852 0.352625,0.158518519" mask="url(#welcome-bB)"/>
      </g>
      <g transform="translate(363 93)">
        <mask id="welcome-bD" fill="#fff">
          <use xlink:href="#welcome-bC"/>
        </mask>
        <path fill="#FFF" d="M0.238461538,0.513 C3.70230769,11.31925 6.1674359,13.78925 14.3715385,18.47275 C12.8466667,10.2505 8.72025641,-1.04025 0.238461538,0.513" mask="url(#welcome-bD)"/>
      </g>
      <g transform="translate(358 73)">
        <mask id="welcome-bF" fill="#fff">
          <use xlink:href="#welcome-bE"/>
        </mask>
        <path fill="#FFF" d="M0.0769924812,0.199142857 C4.69172932,10.7682857 7.46345865,13.1385714 15.5909774,16.9757143 C13.1464662,9.078 8.14195489,-1.54457143 0.0769924812,0.199142857" mask="url(#welcome-bF)"/>
      </g>
      <g transform="translate(353 55)">
        <mask id="welcome-bH" fill="#fff">
          <use xlink:href="#welcome-bG"/>
        </mask>
        <path fill="#FFF" d="M0.0630857143,0.280615385 C5.04137143,9.28 9.32571429,12.8147692 17.6228571,15.7144615 C13.952,8.22646154 8.36022857,-1.45723077 0.0630857143,0.280615385" mask="url(#welcome-bH)"/>
      </g>
      <g transform="translate(344 38)">
        <mask id="welcome-bJ" fill="#fff">
          <use xlink:href="#welcome-bI"/>
        </mask>
        <path fill="#FFF" d="M0.296795455,0.177882353 C5.55647727,8.13140271 10.0022727,11.5833846 17.7271364,13.7932308 C13.6388864,6.82667873 7.79113636,-1.29534842 0.296795455,0.177882353" mask="url(#welcome-bJ)"/>
      </g>
    </g>
    <circle cx="464" cy="464" r="464" stroke="#FFF" stroke-opacity=".1"/>
    <circle cx="464" cy="464" r="438" stroke="#FFF" stroke-opacity=".1"/>
    <circle cx="464" cy="464" r="411" stroke="#FFF" stroke-opacity=".1"/>
    <circle cx="464.5" cy="464.5" r="383.5" stroke="#FFF" stroke-opacity=".1"/>
    <circle cx="464.5" cy="464.5" r="356.5" stroke="#FFF" stroke-opacity=".1"/>
    <circle cx="465" cy="465" r="328" stroke="#FFF" stroke-opacity=".1"/>
    <circle cx="465" cy="465" r="301" stroke="#FFF" stroke-opacity=".1"/>
    <circle cx="465.5" cy="465.5" r="272.5" stroke="#FFF" stroke-opacity=".1"/>
    <circle cx="465.5" cy="465.5" r="245.5" stroke="#FFF" stroke-opacity=".1"/>
    <circle cx="466" cy="466" r="218" stroke="#FFF" stroke-opacity=".1"/>
    <circle cx="466" cy="466" r="191" stroke="#FFF" stroke-opacity=".1"/>
    <circle cx="466" cy="466" r="165" stroke="#FFF" stroke-opacity=".1"/>
    <circle cx="466" cy="466" r="140" fill="#00B8D9"/>
    <circle cx="466" cy="466" r="113" fill="#FFF"/>
    <circle cx="465.5" cy="466.5" r="86.5" fill="#FFF"/>
    <g transform="translate(241 250)">
      <path fill="#FE5630" d="M221.416704,124.450036 L214.685031,126.251697 L216.486692,119.520023 L214.685031,112.78835 L221.416704,114.590011 L228.148377,112.78835 L226.346716,119.520023 L228.148377,126.251697 L221.416704,124.450036 Z M284.043339,120.741583 L281.574414,120.170836 L283.302087,118.317059 L283.872835,115.848134 L285.726612,117.575807 L288.195537,118.146555 L286.467864,120.000332 L285.897116,122.469257 L284.043339,120.741583 Z M321.846026,180.086222 L316.902199,177.089947 L321.947583,174.268034 L323.269483,168.640276 L327.512391,172.566701 L333.273197,172.08483 L330.850075,177.333408 L333.088548,182.663354 L327.348069,181.980727 L322.970715,185.756686 L321.846026,180.086222 Z M367.764981,206.429366 L365.867805,201.729781 L370.886761,202.43367 L375.586346,200.536494 L374.882457,205.55545 L376.779632,210.255034 L371.760677,209.551145 L367.061092,211.448321 L367.764981,206.429366 Z M334.076525,291.972305 L334.674141,286.302129 L339.287787,289.652101 L344.957964,290.249718 L341.607991,294.863364 L341.010374,300.533541 L336.396728,297.183568 L330.726552,296.585951 L334.076525,291.972305 Z M144.749122,158.189423 L148.055733,150.838244 L152.818482,157.341299 L160.831666,158.214433 L156.118664,164.753631 L157.764475,172.644436 L150.08893,170.182828 L143.092912,174.186479 L143.062167,166.125924 L137.09258,160.709512 L144.749122,158.189423 Z M352.262998,246.241625 L354.824274,244.822854 L354.77402,247.750399 L356.192791,250.311675 L353.265245,250.261421 L350.703969,251.680192 L350.754223,248.752647 L349.335452,246.191371 L352.262998,246.241625 Z M325.816156,134.229181 L330.207474,134.1538 L328.079318,137.995715 L328.154699,142.387033 L324.312785,140.258876 L319.921467,140.334257 L322.049623,136.492343 L321.974242,132.101025 L325.816156,134.229181 Z M133.237191,317.724946 L135.877379,318.593942 L133.8189,320.461671 L133.808298,323.241172 L131.395878,321.860603 L128.749139,322.709433 L129.31666,319.988466 L127.691487,317.73357 L130.454654,317.432489 L132.096981,315.190057 L133.237191,317.724946 Z M89.8755512,276.810335 L91.1658037,278.587295 L88.9819176,278.817469 L87.2049574,280.107722 L86.9747835,277.923835 L85.684531,276.146875 L87.8684172,275.916701 L89.6453773,274.626449 L89.8755512,276.810335 Z M106.553652,223.473887 L107.570296,230.722885 L100.782572,227.982749 L93.5335732,228.999392 L96.2737096,222.211668 L95.257066,214.96267 L102.04479,217.702806 L109.293788,216.686163 L106.553652,223.473887 Z M114.576925,173.32379 L113.765783,177.413407 L110.608775,174.690133 L106.468661,175.182453 L108.08308,171.338422 L106.33549,167.553075 L110.490264,167.900607 L113.550308,165.068814 L114.50368,169.127632 L118.142481,171.162834 L114.576925,173.32379 Z M153.290755,122.7094 L150.077809,125.703784 L149.088595,121.42467 L146.094211,118.211725 L150.373324,117.222511 L153.58627,114.228127 L154.575484,118.50724 L157.569868,121.720186 L153.290755,122.7094 Z"/>
      <path fill="#FEAB03" d="M219.509626,181.662675 L215.395129,183.825794 L216.180928,179.244234 L212.85223,175.999556 L217.452377,175.331115 L219.509626,171.162675 L221.566874,175.331115 L226.167021,175.999556 L222.838323,179.244234 L223.624122,183.825794 L219.509626,181.662675 Z M276.6998,196.038956 L273.170659,194.981838 L275.964721,192.580682 L277.021839,189.051541 L279.422995,191.845603 L282.952135,192.902721 L280.158074,195.303877 L279.100956,198.833017 L276.6998,196.038956 Z M317.12264,242.692739 L314.480273,240.682148 L317.683413,239.807809 L318.779062,236.673463 L320.600433,239.449644 L323.919948,239.523102 L321.842477,242.113216 L322.798401,245.292962 L319.693082,244.117559 L316.964361,246.009292 L317.12264,242.692739 Z M326.903689,305.614831 L324.853552,301.792306 L329.058504,302.856793 L331.343839,299.17006 L332.524442,303.343899 L336.859914,303.479691 L333.835565,306.589043 L335.885702,310.411567 L331.68075,309.34708 L329.395415,313.033813 L328.214812,308.859974 L323.87934,308.724183 L326.903689,305.614831 Z M302.757385,362.554811 L303.223464,356.99741 L307.012218,361.089755 L312.058109,358.714691 L310.408411,364.04202 L314.988223,367.224358 L309.549771,368.459343 L309.083691,374.016744 L305.294937,369.924399 L300.249047,372.299463 L301.898744,366.972134 L297.318933,363.789796 L302.757385,362.554811 Z M331.153695,210.075828 L334.266837,208.105883 L334.245943,211.789889 L336.215887,214.90303 L332.531882,214.882136 L329.418741,216.852081 L329.439634,213.168075 L327.46969,210.054934 L331.153695,210.075828 Z M119.628117,252.818433 L122.793703,251.223384 L121.57141,254.550713 L124.79218,256.031172 L121.428682,257.1501 L122.27933,260.591251 L119.30741,258.659202 L117.14738,261.469788 L116.804955,257.941635 L113.260794,258.005227 L115.805717,255.537741 L113.54625,252.806454 L117.062142,253.257701 L117.788794,249.788249 L119.628117,252.818433 Z M133.375092,359.194959 L135.792182,359.743841 L133.75671,361.158213 L134.489909,363.525915 L132.247291,362.470331 L130.563401,364.289151 L130.356254,361.819195 L127.939164,361.270313 L129.974636,359.855941 L129.241437,357.488239 L131.484055,358.543823 L133.167946,356.725003 L133.375092,359.194959 Z M276.600964,148.406071 L280.4791,153.796652 L273.84148,153.595907 L269.913142,158.950014 L268.052925,152.575229 L261.746943,150.493668 L267.234886,146.754579 L267.265913,140.113996 L272.517865,144.177898 L278.843022,142.155353 L276.600964,148.406071 Z M153.256073,225.326666 L152.367003,231.153734 L147.940369,227.261425 L142.113301,226.372355 L146.005611,221.94572 L146.894681,216.118652 L151.321315,220.010962 L157.148383,220.900032 L153.256073,225.326666 Z M158.319452,196.038956 L156.696174,198.935427 L155.384553,195.885144 L152.128225,195.236374 L154.623903,193.046359 L154.234659,189.748926 L157.088694,191.445705 L160.104456,190.056549 L159.372669,193.295232 L161.625756,195.734119 L158.319452,196.038956 Z"/>
      <path fill="#FFF" d="M56.8314684,294.239752 L52.5888277,296.077371 L54.4264461,291.83473 L52.5888277,287.592089 L56.8314684,289.429708 L61.0741091,287.592089 L59.2364908,291.83473 L61.0741091,296.077371 L56.8314684,294.239752 Z M275.011995,231.931598 L271.319287,230.832082 L274.764965,229.108038 L275.864481,225.41533 L277.588526,228.861008 L281.281234,229.960525 L277.835555,231.684569 L276.736039,235.377277 L275.011995,231.931598 Z M80.2876311,210.418566 L77.3167989,205.916298 L82.5636308,207.168101 L87.0658983,204.197269 L85.8140953,209.444101 L88.7849275,213.946369 L83.5380956,212.694566 L79.0358282,215.665398 L80.2876311,210.418566 Z M220.615657,111.549525 L220.968921,108.487496 L222.805871,110.962659 L225.8679,111.315923 L223.392737,113.152873 L223.039473,116.214903 L221.202523,113.73974 L218.140494,113.386476 L220.615657,111.549525 Z M254.657147,314.886443 L255.776573,313.827155 L255.684663,315.365581 L256.743952,316.485007 L255.205525,316.393097 L254.0861,317.452386 L254.178009,315.913959 L253.11872,314.794534 L254.657147,314.886443 Z M216.075972,380.42045 L220.691253,380.144722 L217.513388,383.502997 L217.789116,388.118278 L214.43084,384.940413 L209.81556,385.216141 L212.993425,381.857865 L212.717697,377.242585 L216.075972,380.42045 Z M178.571489,263.89042 L181.665443,266.186608 L177.837906,266.628188 L175.541718,269.722142 L175.100138,265.894605 L172.006184,263.598418 L175.833721,263.156837 L178.129909,260.062884 L178.571489,263.89042 Z M93.4826475,219.532924 L93.8403055,221.032019 L92.5539434,220.183209 L91.0548486,220.540867 L91.9036578,219.254505 L91.5459998,217.75541 L92.8323619,218.60422 L94.3314567,218.246562 L93.4826475,219.532924 Z M151.665918,175.775559 L152.023576,177.274654 L150.737214,176.425844 L149.238119,176.783502 L150.086929,175.49714 L149.729271,173.998045 L151.015633,174.846855 L152.514728,174.489197 L151.665918,175.775559 Z M152.419129,121.929178 L152.776787,123.428273 L151.490425,122.579464 L149.99133,122.937122 L150.84014,121.65076 L150.482482,120.151665 L151.768844,121.000474 L153.267939,120.642816 L152.419129,121.929178 Z M204.850276,91.0912972 L205.207934,92.590392 L203.921571,91.7415828 L202.422477,92.0992408 L203.271286,90.8128787 L202.913628,89.3137839 L204.19999,90.1625931 L205.699085,89.8049351 L204.850276,91.0912972 Z M280.951944,94.0129535 L281.309602,95.5120484 L280.02324,94.6632392 L278.524145,95.0208971 L279.372954,93.734535 L279.015296,92.2354402 L280.301658,93.0842494 L281.800753,92.7265914 L280.951944,94.0129535 Z M345.549363,122.773577 L345.907021,124.272672 L344.620659,123.423863 L343.121564,123.781521 L343.970373,122.495159 L343.612715,120.996064 L344.899077,121.844873 L346.398172,121.487215 L345.549363,122.773577 Z M377.622109,153.307803 L377.979767,154.806898 L376.693405,153.958089 L375.19431,154.315747 L376.043119,153.029385 L375.685461,151.53029 L376.971823,152.379099 L378.470918,152.021441 L377.622109,153.307803 Z M335.26174,154.572395 L335.619398,156.07149 L334.333036,155.222681 L332.833941,155.580339 L333.682751,154.293977 L333.325093,152.794882 L334.611455,153.643691 L336.11055,153.286033 L335.26174,154.572395 Z M342.392624,228.957545 L342.750282,230.45664 L341.46392,229.607831 L339.964825,229.965489 L340.813634,228.679127 L340.455976,227.180032 L341.742339,228.028841 L343.241433,227.671183 L342.392624,228.957545 Z M411.326934,213.207593 L411.684592,214.706688 L410.398229,213.857879 L408.899135,214.215537 L409.747944,212.929174 L409.390286,211.43008 L410.676648,212.278889 L412.175743,211.921231 L411.326934,213.207593 Z M423.493206,272.806098 L423.850864,274.305193 L422.564502,273.456384 L421.065407,273.814042 L421.914217,272.527679 L421.556559,271.028585 L422.842921,271.877394 L424.342016,271.519736 L423.493206,272.806098 Z M131.914829,406.15545 L132.272487,407.654545 L130.986125,406.805736 L129.48703,407.163394 L130.335839,405.877032 L129.978181,404.377937 L131.264543,405.226746 L132.763638,404.869088 L131.914829,406.15545 Z M91.7411433,357.307984 L92.0988013,358.807079 L90.8124392,357.958269 L89.3133443,358.315927 L90.1621536,357.029565 L89.8044956,355.53047 L91.0908577,356.37928 L92.5899525,356.021622 L91.7411433,357.307984 Z M87.9108921,285.94042 L88.2685501,287.439515 L86.982188,286.590706 L85.4830932,286.948363 L86.3319024,285.662001 L85.9742444,284.162907 L87.2606065,285.011716 L88.7597013,284.654058 L87.9108921,285.94042 Z M53.4893314,224.17347 L53.8469894,225.672564 L52.5606273,224.823755 L51.0615324,225.181413 L51.9103416,223.895051 L51.5526836,222.395956 L52.8390458,223.244765 L54.3381406,222.887107 L53.4893314,224.17347 Z M75.0825962,140.904442 L75.4402542,142.403537 L74.1538921,141.554728 L72.6547973,141.912386 L73.5036065,140.626024 L73.1459485,139.126929 L74.4323106,139.975738 L75.9314055,139.61808 L75.0825962,140.904442 Z M164.516829,66.941492 L164.874487,68.4405868 L163.588125,67.5917776 L162.08903,67.9494356 L162.937839,66.6630735 L162.580181,65.1639786 L163.866543,66.0127878 L165.365638,65.6551298 L164.516829,66.941492 Z M239.118823,57.5850793 L239.476481,59.0841742 L238.190119,58.2353649 L236.691024,58.5930229 L237.539834,57.3066608 L237.182176,55.807566 L238.468538,56.6563752 L239.967632,56.2987172 L239.118823,57.5850793 Z M312.476834,84.053972 L312.834492,85.5530669 L311.54813,84.7042577 L310.049035,85.0619157 L310.897844,83.7755535 L310.540186,82.2764587 L311.826548,83.1252679 L313.325643,82.7676099 L312.476834,84.053972 Z M382.55482,185.690953 L382.912478,187.190048 L381.626116,186.341238 L380.127021,186.698896 L380.97583,185.412534 L380.618172,183.913439 L381.904535,184.762249 L383.403629,184.404591 L382.55482,185.690953 Z M322.639164,353.294992 L322.996822,354.794087 L321.71046,353.945278 L320.211365,354.302936 L321.060174,353.016574 L320.702516,351.517479 L321.988878,352.366288 L323.487973,352.00863 L322.639164,353.294992 Z M249.027834,384.76517 L249.385492,386.264264 L248.099129,385.415455 L246.600035,385.773113 L247.448844,384.486751 L247.091186,382.987656 L248.377548,383.836466 L249.876643,383.478808 L249.027834,384.76517 Z M88.8924373,321.98257 L89.2500953,323.481665 L87.9637332,322.632855 L86.4646383,322.990513 L87.3134475,321.704151 L86.9557895,320.205056 L88.2421517,321.053866 L89.7412465,320.696208 L88.8924373,321.98257 Z M194.648323,235.069605 L193.613896,237.137012 L192.954187,234.921387 L190.88678,233.886961 L193.102404,233.227251 L194.136831,231.159844 L194.796541,233.375469 L196.863948,234.409895 L194.648323,235.069605 Z" transform="rotate(21 237.702 231.731)"/>
    </g>
    <circle cx="465.5" cy="466.5" r="59.5" fill="#FE5630"/>
    <polygon fill="#FFF" points="465.5 484.25 444.634 495.22 448.619 471.985 431.737 455.53 455.067 452.14 465.5 431 475.933 452.14 499.263 455.53 482.381 471.985 486.366 495.22"/>
    <text fill="#D3182F" font-family="HGGGothicssi99g, HGGGothicssi" font-size="20" transform="translate(385 528)">
      <tspan x="7.26" y="17"> ! </tspan> <tspan x="98.64" y="17" font-family="HGGGothicssi20g, HGGGothicssi">TOP 20</tspan>
    </text>
    <text fill="#FFF" font-family="HGGGothicssi40g, HGGGothicssi" font-size="12" opacity=".75">
      <tspan x="397.858" y="631">    </tspan> <tspan x="495.538" y="631" font-family="HGGGothicssi80g, HGGGothicssi">?</tspan> <tspan x="365.632" y="648" font-family="HGGGothicssi80g, HGGGothicssi"> ! </tspan> <tspan x="417.508" y="648">   </tspan> <tspan x="437.608" y="665">!</tspan>
    </text>
    <g transform="translate(252 534)">
      <path fill="#FFF" d="M66.842283,59.155512 L70.1024765,35.8898449 C70.1024765,41.7872471 70.1024765,47.6804963 70.1024765,53.5778985 C70.1024765,62.1955813 75.5915778,69.3306074 82.3656277,69.5008845 C147.631873,71.0001537 212.906436,71.3739327 278.180998,70.6263747 C299.80473,70.3813418 321.428463,70.0075627 343.052195,69.5133438 C350.146442,69.3347605 355.901682,61.8591802 355.901682,52.8344936 C355.901682,49.6822905 355.901682,46.5259344 355.901682,43.3737314 L358.463262,58.9561632 C368.992357,61.9422422 380.498677,63.8858931 391.05688,63.5245734 C416.988725,62.7479437 422.719014,54.2880786 422.719014,54.3129972 C408.405767,52.439949 397.668752,41.6460417 397.668752,41.6252762 C417.001201,29.0621482 426,16.4034989 426,16.3827334 C409.39131,24.1324183 378.273928,13.0934781 367.237508,8.69534502 C318.779555,-10.3258537 319.665297,7.77750989 319.661138,7.85641879 C319.661138,7.85641879 319.661138,8.37555631 319.669455,9.26016664 C319.906485,11.556831 321.295394,15.4026018 327.021524,16.6651442 C335.122107,18.438518 339.467645,8.2177385 347.676347,8.31325981 C355.273762,8.39632181 355.993167,12.9315072 355.901682,15.1077317 C355.901682,14.9166891 355.901682,14.7256465 355.901682,14.538757 C355.51495,20.3530972 350.129809,20.9511436 348.944662,20.9428374 C324.642914,20.7061107 300.341165,20.5358336 276.035259,20.427853 C209.708618,20.1288298 143.373661,20.30326 77.0553381,20.9428374 C75.8701912,20.9511436 70.4850502,20.3530972 70.1024765,14.538757 C70.1024765,14.7256465 70.1024765,14.912536 70.1024765,15.0994255 C70.0109915,12.923201 70.7345548,8.39632181 78.3236532,8.31325981 C86.5323546,8.2177385 90.8778931,18.438518 98.9784758,16.6651442 C104.708765,15.4026018 106.093515,11.5526779 106.330545,9.26016664 C106.338862,8.37140321 106.338862,7.85641879 106.338862,7.85641879 C106.338862,7.77750989 107.220445,-10.3258537 58.7666507,8.69534502 C47.7260721,13.0934781 16.6128481,24.1324183 0,16.3827334 C0.00415841004,16.4034989 8.99879933,29.0621482 28.3312476,41.6252762 C28.3312476,41.6460417 17.5942329,52.439949 3.28098552,54.3129972 C3.28098552,54.2880786 9.01543297,62.7479437 34.9431196,63.5245734 C45.2726101,63.8775869 56.5044757,62.0294573 66.842283,59.155512"/>
      <path fill="#D3182F" d="M122.43,59.74 L122.43,69.16 L101.79,69.16 L101.79,39.16 L110.97,39.16 L110.97,29.62 L101.79,29.62 L101.79,20.14 L120.45,20.14 L120.45,48.52 L111.27,48.52 L111.27,59.74 L122.43,59.74 Z M125.19,48.64 L121.65,48.64 L121.65,38.5 L125.19,38.5 L125.19,19.84 L135.03,19.84 L135.03,70.84 L125.19,70.84 L125.19,48.64 Z M137.43,71.44 L137.43,19.6 L147.51,19.6 L147.51,71.44 L137.43,71.44 Z M202.65,62.02 L202.65,71.44 L157.53,71.44 L157.53,54.22 L167.79,54.22 L167.79,62.02 L202.65,62.02 Z M201.51,19.6 L201.51,57.76 L191.25,57.76 L191.25,19.6 L201.51,19.6 Z M155.79,28.54 L155.79,20.14 L184.59,20.14 L184.59,28.54 L174.93,28.54 C174.81,29.98 174.57,31.42 174.27,32.86 C177.51,37.54 182.85,42.04 187.59,44.92 L181.41,52.06 C177.81,49.72 173.79,46.3 170.55,42.64 C168.09,47.02 164.79,50.62 161.19,52.96 L153.57,46.66 C159.87,42.7 163.77,36.52 164.79,28.54 L155.79,28.54 Z M230.55,69.88 L221.67,64.78 C229.17,55.78 233.19,47.14 233.61,33.46 L223.89,33.46 L223.89,24.1 L233.61,24.1 L233.61,17.86 L243.99,17.86 L243.99,24.1 L253.95,24.1 L253.95,33.46 L243.87,33.46 C243.81,36.58 243.51,39.46 243.15,42.22 C246.15,50.08 250.89,56.92 256.83,62.56 L249.09,69.16 C245.13,65.44 241.83,60.88 239.19,56.02 C237.03,61 234.09,65.5 230.55,69.88 Z M268.47,48.04 L268.47,71.44 L258.21,71.44 L258.21,19.6 L268.47,19.6 L268.47,37.9 L274.65,37.9 L274.65,48.04 L268.47,48.04 Z M323.61,32.98 L323.61,41.56 L288.75,41.56 L288.75,46.06 L324.15,46.06 L324.15,54.88 L278.49,54.88 L278.49,20.14 L323.61,20.14 L323.61,29.02 L288.75,29.02 L288.75,32.98 L323.61,32.98 Z M325.83,60.28 L325.83,69.7 L276.21,69.7 L276.21,60.28 L325.83,60.28 Z"/>
    </g>
    <g transform="translate(186 353)">
      <path fill="#FFF" fill-rule="nonzero" d="M63.7474427,0 L6.24963467,0 C2.80257055,0 0,2.80257055 0,6.24963467 L0,34.3729907 C0,37.8200548 2.80257055,40.6226254 6.24963467,40.6226254 L15.6240867,40.6226254 L15.6240867,48.8252709 C15.6240867,49.7822462 16.7177727,50.3388543 17.489212,49.7724811 L29.6857647,40.6226254 L63.7474427,40.6226254 C67.1945068,40.6226254 69.9970774,37.8200548 69.9970774,34.3729907 L69.9970774,6.24963467 C69.9970774,2.80257055 67.1945068,0 63.7474427,0 Z" transform="translate(460)"/>
      <text fill="#172B4D" font-family="HGGGothicssi80g, HGGGothicssi" font-size="11">
        <tspan x="472" y="16">  </tspan> <tspan x="472" y="30">!</tspan>
      </text>
      <path fill="#FFF" fill-rule="nonzero" d="M73.7474427,0 L6.24963467,0 C2.80257055,0 0,2.80257055 0,6.24963467 L0,34.3729907 C0,37.8200548 2.80257055,40.6226254 6.24963467,40.6226254 L15.6240867,40.6226254 L15.6240867,48.8252709 C15.6240867,49.7822462 16.7177727,50.3388543 17.489212,49.7724811 L29.6857647,40.6226254 L73.7474427,40.6226254 C77.1945068,40.6226254 79.9970774,37.8200548 79.9970774,34.3729907 L79.9970774,6.24963467 C79.9970774,2.80257055 77.1945068,0 73.7474427,0 Z" transform="matrix(-1 0 0 1 79.997 10)"/>
      <text fill="#172B4D" font-family="HGGGothicssi80g, HGGGothicssi" font-size="11">
        <tspan x="8.015" y="26"> </tspan> <tspan x="15.132" y="40"> !</tspan>
      </text>
      <path fill="#FFF" fill-rule="nonzero" d="M68.7474427,0 L6.24963467,0 C2.80257055,0 1.42108547e-14,2.80257055 1.42108547e-14,6.24963467 L1.42108547e-14,23.3729907 C1.42108547e-14,26.8200548 2.80257055,29.6226254 6.24963467,29.6226254 L15.6240867,29.6226254 L15.6240867,37.8252709 C15.6240867,38.7822462 16.7177727,39.3388543 17.489212,38.7724811 L29.6857647,29.6226254 L68.7474427,29.6226254 C72.1945068,29.6226254 74.9970774,26.8200548 74.9970774,23.3729907 L74.9970774,6.24963467 C74.9970774,2.80257055 72.1945068,0 68.7474427,0 Z" transform="rotate(180 74.999 164.5)"/>
      <text fill="#172B4D" font-family="HGGGothicssi80g, HGGGothicssi" font-size="11">
        <tspan x="87.915" y="316"> </tspan>
      </text>
      <path fill="#FFF" fill-rule="nonzero" d="M41.7474427,0 L6.24963467,0 C2.80257055,0 1.42108547e-14,2.80257055 1.42108547e-14,6.24963467 L1.42108547e-14,23.3729907 C1.42108547e-14,26.8200548 2.80257055,29.6226254 6.24963467,29.6226254 L15.6240867,29.6226254 L15.6240867,37.8252709 C15.6240867,38.7822462 16.7177727,39.3388543 17.489212,38.7724811 L29.6857647,29.6226254 L41.7474427,29.6226254 C45.1945068,29.6226254 47.9970774,26.8200548 47.9970774,23.3729907 L47.9970774,6.24963467 C47.9970774,2.80257055 45.1945068,0 41.7474427,0 Z" transform="matrix(1 0 0 -1 385 319)"/>
      <text fill="#172B4D" font-family="HGGGothicssi80g, HGGGothicssi" font-size="20">
        <tspan x="400" y="315"></tspan>
      </text>
    </g>
  </g>
</svg>
